<svg width="2044" height="1082" viewBox="0 0 2044 1082" fill="none" xmlns="http://www.w3.org/2000/svg">
<rect x="250" y="24" width="1600" height="900" fill="black"/>
<path d="M1197 455.702V443.588H1208.42V455.702H1197Z" fill="#6366f1"/>
<path d="M899.064 455.588V419.72H891V409.892H899.064V408.38C899.064 404.908 899.764 401.968 901.164 399.56C902.62 397.096 904.636 395.22 907.212 393.932C909.788 392.644 912.84 392 916.368 392C917.04 392 917.768 392.056 918.552 392.168C919.392 392.224 920.092 392.308 920.652 392.42V401.912C920.092 401.8 919.56 401.744 919.056 401.744C918.608 401.688 918.188 401.66 917.796 401.66C915.332 401.66 913.428 402.22 912.084 403.34C910.74 404.404 910.068 406.084 910.068 408.38V409.892H920.232V419.72H910.068V455.588H899.064Z" fill="white"/>
<path d="M948.928 456.596C944.448 456.596 940.36 455.56 936.664 453.488C933.024 451.416 930.112 448.588 927.928 445.004C925.8 441.42 924.736 437.332 924.736 432.74C924.736 428.148 925.8 424.06 927.928 420.476C930.112 416.892 933.024 414.064 936.664 411.992C940.304 409.92 944.392 408.884 948.928 408.884C953.408 408.884 957.468 409.92 961.108 411.992C964.748 414.064 967.632 416.892 969.76 420.476C971.944 424.004 973.036 428.092 973.036 432.74C973.036 437.332 971.944 441.42 969.76 445.004C967.576 448.588 964.664 451.416 961.024 453.488C957.384 455.56 953.352 456.596 948.928 456.596ZM948.928 446.516C951.392 446.516 953.548 445.928 955.396 444.752C957.3 443.576 958.784 441.952 959.848 439.88C960.968 437.752 961.528 435.372 961.528 432.74C961.528 430.052 960.968 427.7 959.848 425.684C958.784 423.612 957.3 421.988 955.396 420.812C953.548 419.58 951.392 418.964 948.928 418.964C946.408 418.964 944.196 419.58 942.292 420.812C940.388 421.988 938.876 423.612 937.756 425.684C936.692 427.7 936.16 430.052 936.16 432.74C936.16 435.372 936.692 437.752 937.756 439.88C938.876 441.952 940.388 443.576 942.292 444.752C944.196 445.928 946.408 446.516 948.928 446.516Z" fill="white"/>
<path d="M981.381 455.588V409.892H991.713V420.056L990.873 418.544C991.937 415.128 993.589 412.748 995.829 411.404C998.125 410.06 1000.87 409.388 1004.06 409.388H1006.75V419.132H1002.8C999.665 419.132 997.145 420.112 995.241 422.072C993.337 423.976 992.385 426.664 992.385 430.136V455.588H981.381Z" fill="white"/>
<path d="M1012.8 455.588V409.892H1023.13V420.476L1021.96 418.712C1022.8 415.408 1024.48 412.944 1027 411.32C1029.52 409.696 1032.48 408.884 1035.9 408.884C1039.65 408.884 1042.96 409.864 1045.81 411.824C1048.67 413.784 1050.52 416.36 1051.36 419.552L1048.25 419.804C1049.65 416.164 1051.75 413.448 1054.55 411.656C1057.35 409.808 1060.57 408.884 1064.21 408.884C1067.46 408.884 1070.34 409.612 1072.86 411.068C1075.44 412.524 1077.45 414.568 1078.91 417.2C1080.36 419.776 1081.09 422.772 1081.09 426.188V455.588H1070.09V428.792C1070.09 426.776 1069.72 425.04 1069 423.584C1068.27 422.128 1067.26 421.008 1065.97 420.224C1064.68 419.384 1063.12 418.964 1061.27 418.964C1059.53 418.964 1057.99 419.384 1056.65 420.224C1055.3 421.008 1054.27 422.128 1053.54 423.584C1052.81 425.04 1052.45 426.776 1052.45 428.792V455.588H1041.44V428.792C1041.44 426.776 1041.08 425.04 1040.35 423.584C1039.62 422.128 1038.59 421.008 1037.24 420.224C1035.96 419.384 1034.42 418.964 1032.62 418.964C1030.89 418.964 1029.35 419.384 1028 420.224C1026.66 421.008 1025.62 422.128 1024.9 423.584C1024.17 425.04 1023.8 426.776 1023.8 428.792V455.588H1012.8Z" fill="white"/>
<path d="M1090.4 455.588V409.892H1101.4V455.588H1090.4ZM1090.4 404.768V393.008H1101.4V404.768H1090.4Z" fill="white"/>
<path d="M1132.4 456.092C1127.24 456.092 1123.24 454.692 1120.38 451.892C1117.58 449.036 1116.18 445.032 1116.18 439.88V419.72H1108.29V409.892H1109.13C1111.37 409.892 1113.1 409.304 1114.34 408.128C1115.57 406.952 1116.18 405.244 1116.18 403.004V399.476H1127.19V409.892H1137.69V419.72H1127.19V439.292C1127.19 440.804 1127.44 442.092 1127.94 443.156C1128.5 444.22 1129.34 445.032 1130.46 445.592C1131.64 446.152 1133.12 446.432 1134.92 446.432C1135.31 446.432 1135.76 446.404 1136.26 446.348C1136.82 446.292 1137.35 446.236 1137.86 446.18V455.588C1137.07 455.7 1136.18 455.812 1135.17 455.924C1134.16 456.036 1133.24 456.092 1132.4 456.092Z" fill="white"/>
<path d="M1151.81 474.152C1150.58 474.152 1149.37 474.04 1148.2 473.816C1147.02 473.648 1145.96 473.34 1145 472.892V463.652C1145.73 463.82 1146.6 463.988 1147.61 464.156C1148.67 464.324 1149.65 464.408 1150.55 464.408C1153.07 464.408 1154.89 463.82 1156.01 462.644C1157.18 461.468 1158.22 459.928 1159.12 458.024L1162.14 450.968L1161.97 460.208L1142.06 409.892H1153.91L1167.85 447.02H1163.65L1177.51 409.892H1189.44L1169.53 460.208C1168.36 463.176 1166.93 465.696 1165.25 467.768C1163.57 469.84 1161.61 471.408 1159.37 472.472C1157.18 473.592 1154.66 474.152 1151.81 474.152Z" fill="white"/>
<path d="M691.043 537V513.16H701.059C702.403 513.16 703.566 513.416 704.547 513.928C705.55 514.419 706.318 515.112 706.851 516.008C707.406 516.904 707.683 517.949 707.683 519.144C707.683 520.381 707.374 521.48 706.755 522.44C706.158 523.379 705.294 524.093 704.163 524.584L704.131 523.816C705.07 524.157 705.87 524.637 706.531 525.256C707.214 525.875 707.736 526.6 708.099 527.432C708.462 528.243 708.643 529.117 708.643 530.056C708.643 532.189 707.96 533.885 706.595 535.144C705.251 536.381 703.416 537 701.091 537H691.043ZM693.603 534.6H701.091C702.606 534.6 703.811 534.205 704.707 533.416C705.624 532.605 706.083 531.496 706.083 530.088C706.083 528.701 705.624 527.603 704.707 526.792C703.811 525.96 702.606 525.544 701.091 525.544H693.603V534.6ZM693.603 523.24H700.867C702.147 523.24 703.171 522.867 703.939 522.12C704.728 521.373 705.123 520.413 705.123 519.24C705.123 518.045 704.728 517.139 703.939 516.52C703.171 515.88 702.147 515.56 700.867 515.56H693.603V523.24ZM718.638 537.384C717.444 537.384 716.356 537.107 715.374 536.552C714.393 535.976 713.614 535.187 713.038 534.184C712.484 533.16 712.206 531.987 712.206 530.664V519.848H714.606V530.376C714.606 531.293 714.788 532.104 715.15 532.808C715.534 533.491 716.057 534.024 716.718 534.408C717.401 534.792 718.18 534.984 719.054 534.984C719.929 534.984 720.708 534.792 721.39 534.408C722.073 534.003 722.606 533.437 722.99 532.712C723.374 531.965 723.566 531.08 723.566 530.056V519.848H725.966V537H723.566V533.672L724.11 533.8C723.705 534.909 723.012 535.784 722.03 536.424C721.049 537.064 719.918 537.384 718.638 537.384ZM730.582 537V519.848H732.982V537H730.582ZM730.582 516.68V513.16H732.982V516.68H730.582ZM737.575 537V512.776H739.975V537H737.575ZM752.311 537.384C750.711 537.384 749.271 537 747.991 536.232C746.711 535.443 745.698 534.376 744.951 533.032C744.226 531.667 743.863 530.131 743.863 528.424C743.863 526.696 744.226 525.16 744.951 523.816C745.698 522.472 746.7 521.416 747.959 520.648C749.239 519.859 750.69 519.464 752.311 519.464C753.783 519.464 755.095 519.784 756.247 520.424C757.399 521.064 758.306 521.928 758.967 523.016L758.583 523.688V512.776H760.983V537H758.583V533.16L758.967 533.512C758.37 534.749 757.474 535.709 756.279 536.392C755.106 537.053 753.783 537.384 752.311 537.384ZM752.439 534.984C753.591 534.984 754.626 534.696 755.543 534.12C756.482 533.544 757.218 532.765 757.751 531.784C758.306 530.781 758.583 529.661 758.583 528.424C758.583 527.187 758.306 526.077 757.751 525.096C757.218 524.093 756.482 523.304 755.543 522.728C754.626 522.152 753.591 521.864 752.439 521.864C751.308 521.864 750.284 522.152 749.367 522.728C748.45 523.304 747.724 524.083 747.191 525.064C746.679 526.045 746.423 527.165 746.423 528.424C746.423 529.661 746.679 530.781 747.191 531.784C747.724 532.765 748.439 533.544 749.335 534.12C750.252 534.696 751.287 534.984 752.439 534.984ZM777.268 537.192C775.732 537.192 774.548 536.744 773.716 535.848C772.884 534.952 772.468 533.672 772.468 532.008V522.248H769.3V519.848H770.1C770.826 519.848 771.402 519.613 771.828 519.144C772.255 518.653 772.468 518.045 772.468 517.32V515.88H774.868V519.848H778.644V522.248H774.868V532.008C774.868 532.584 774.954 533.096 775.124 533.544C775.295 533.971 775.583 534.312 775.988 534.568C776.415 534.824 776.98 534.952 777.684 534.952C777.855 534.952 778.058 534.941 778.292 534.92C778.527 534.899 778.73 534.877 778.9 534.856V537C778.644 537.064 778.356 537.107 778.036 537.128C777.716 537.171 777.46 537.192 777.268 537.192ZM782.795 537V512.776H785.195V523.176L784.651 523.048C785.077 521.939 785.771 521.064 786.731 520.424C787.712 519.784 788.843 519.464 790.123 519.464C791.339 519.464 792.427 519.741 793.387 520.296C794.368 520.851 795.136 521.619 795.691 522.6C796.267 523.56 796.555 524.648 796.555 525.864V537H794.155V526.792C794.155 525.747 793.963 524.861 793.579 524.136C793.195 523.411 792.661 522.856 791.979 522.472C791.317 522.067 790.56 521.864 789.707 521.864C788.853 521.864 788.085 522.067 787.403 522.472C786.72 522.856 786.176 523.421 785.771 524.168C785.387 524.893 785.195 525.768 785.195 526.792V537H782.795ZM808.626 537.384C807.026 537.384 805.576 537 804.274 536.232C802.994 535.443 801.981 534.365 801.234 533C800.488 531.635 800.114 530.088 800.114 528.36C800.114 526.632 800.477 525.107 801.202 523.784C801.928 522.44 802.909 521.384 804.146 520.616C805.405 519.848 806.813 519.464 808.37 519.464C809.608 519.464 810.706 519.699 811.666 520.168C812.648 520.616 813.48 521.235 814.162 522.024C814.845 522.792 815.368 523.667 815.73 524.648C816.093 525.608 816.274 526.6 816.274 527.624C816.274 527.837 816.264 528.083 816.242 528.36C816.221 528.616 816.189 528.883 816.146 529.16H801.65V526.92H814.77L813.618 527.88C813.81 526.707 813.672 525.661 813.202 524.744C812.754 523.805 812.104 523.069 811.25 522.536C810.397 521.981 809.437 521.704 808.37 521.704C807.304 521.704 806.312 521.981 805.394 522.536C804.498 523.091 803.794 523.869 803.282 524.872C802.77 525.853 802.568 527.027 802.674 528.392C802.568 529.757 802.781 530.952 803.314 531.976C803.869 532.979 804.616 533.757 805.554 534.312C806.514 534.867 807.538 535.144 808.626 535.144C809.885 535.144 810.941 534.845 811.794 534.248C812.648 533.651 813.341 532.904 813.874 532.008L815.922 533.096C815.581 533.864 815.058 534.579 814.354 535.24C813.65 535.88 812.808 536.403 811.826 536.808C810.866 537.192 809.8 537.384 808.626 537.384ZM825.303 537V519.848H827.703V523.112L827.319 522.632C827.789 521.629 828.482 520.851 829.399 520.296C830.338 519.741 831.362 519.464 832.471 519.464C833.794 519.464 834.989 519.837 836.055 520.584C837.122 521.331 837.879 522.301 838.327 523.496L837.655 523.528C838.082 522.205 838.818 521.203 839.863 520.52C840.93 519.816 842.103 519.464 843.383 519.464C844.535 519.464 845.591 519.741 846.551 520.296C847.533 520.851 848.311 521.619 848.887 522.6C849.485 523.56 849.783 524.648 849.783 525.864V537H847.383V526.792C847.383 525.747 847.191 524.861 846.807 524.136C846.445 523.411 845.943 522.856 845.303 522.472C844.663 522.067 843.927 521.864 843.095 521.864C842.285 521.864 841.549 522.067 840.887 522.472C840.226 522.856 839.703 523.421 839.319 524.168C838.935 524.893 838.743 525.768 838.743 526.792V537H836.343V526.792C836.343 525.747 836.151 524.861 835.767 524.136C835.405 523.411 834.903 522.856 834.263 522.472C833.623 522.067 832.887 521.864 832.055 521.864C831.223 521.864 830.477 522.067 829.815 522.472C829.175 522.856 828.663 523.421 828.279 524.168C827.895 524.893 827.703 525.768 827.703 526.792V537H825.303ZM862.078 537.384C860.457 537.384 858.985 537 857.662 536.232C856.339 535.443 855.283 534.376 854.494 533.032C853.726 531.667 853.342 530.12 853.342 528.392C853.342 526.685 853.726 525.16 854.494 523.816C855.262 522.472 856.297 521.416 857.598 520.648C858.921 519.859 860.414 519.464 862.078 519.464C863.742 519.464 865.225 519.848 866.526 520.616C867.849 521.384 868.883 522.44 869.63 523.784C870.398 525.128 870.782 526.664 870.782 528.392C870.782 530.141 870.387 531.699 869.598 533.064C868.809 534.408 867.753 535.464 866.43 536.232C865.129 537 863.678 537.384 862.078 537.384ZM862.078 534.984C863.23 534.984 864.265 534.696 865.182 534.12C866.121 533.544 866.857 532.755 867.39 531.752C867.945 530.749 868.222 529.629 868.222 528.392C868.222 527.155 867.945 526.045 867.39 525.064C866.857 524.083 866.121 523.304 865.182 522.728C864.265 522.152 863.23 521.864 862.078 521.864C860.926 521.864 859.881 522.152 858.942 522.728C858.025 523.304 857.289 524.083 856.734 525.064C856.179 526.045 855.902 527.155 855.902 528.392C855.902 529.629 856.179 530.749 856.734 531.752C857.289 532.755 858.025 533.544 858.942 534.12C859.881 534.696 860.926 534.984 862.078 534.984ZM880.647 537.384C879.004 537.384 877.564 536.968 876.327 536.136C875.089 535.304 874.193 534.173 873.639 532.744L875.655 531.784C876.145 532.829 876.828 533.661 877.703 534.28C878.599 534.899 879.58 535.208 880.647 535.208C881.671 535.208 882.535 534.963 883.239 534.472C883.943 533.96 884.295 533.299 884.295 532.488C884.295 531.891 884.124 531.421 883.783 531.08C883.441 530.717 883.047 530.44 882.599 530.248C882.151 530.056 881.756 529.917 881.415 529.832L878.951 529.128C877.372 528.68 876.231 528.051 875.527 527.24C874.823 526.429 874.471 525.491 874.471 524.424C874.471 523.421 874.727 522.547 875.239 521.8C875.751 521.053 876.444 520.477 877.319 520.072C878.193 519.667 879.164 519.464 880.231 519.464C881.681 519.464 882.993 519.848 884.167 520.616C885.361 521.363 886.204 522.408 886.695 523.752L884.647 524.712C884.22 523.752 883.601 523.005 882.791 522.472C882.001 521.917 881.116 521.64 880.135 521.64C879.175 521.64 878.407 521.885 877.831 522.376C877.255 522.867 876.967 523.485 876.967 524.232C876.967 524.808 877.116 525.267 877.415 525.608C877.713 525.949 878.055 526.205 878.439 526.376C878.844 526.547 879.196 526.675 879.495 526.76L882.343 527.592C883.729 527.997 884.807 528.627 885.575 529.48C886.364 530.333 886.759 531.336 886.759 532.488C886.759 533.427 886.492 534.269 885.959 535.016C885.447 535.763 884.732 536.349 883.815 536.776C882.897 537.181 881.841 537.384 880.647 537.384ZM897.216 537.192C895.68 537.192 894.496 536.744 893.664 535.848C892.832 534.952 892.416 533.672 892.416 532.008V522.248H889.248V519.848H890.048C890.773 519.848 891.349 519.613 891.776 519.144C892.203 518.653 892.416 518.045 892.416 517.32V515.88H894.816V519.848H898.592V522.248H894.816V532.008C894.816 532.584 894.901 533.096 895.072 533.544C895.243 533.971 895.531 534.312 895.936 534.568C896.363 534.824 896.928 534.952 897.632 534.952C897.803 534.952 898.005 534.941 898.24 534.92C898.475 534.899 898.677 534.877 898.848 534.856V537C898.592 537.064 898.304 537.107 897.984 537.128C897.664 537.171 897.408 537.192 897.216 537.192ZM907.86 543.4V519.848H910.26V523.688L909.876 523.016C910.558 521.928 911.465 521.064 912.596 520.424C913.748 519.784 915.06 519.464 916.532 519.464C918.153 519.464 919.593 519.859 920.852 520.648C922.132 521.416 923.134 522.472 923.86 523.816C924.606 525.16 924.98 526.696 924.98 528.424C924.98 530.131 924.606 531.667 923.86 533.032C923.134 534.376 922.132 535.443 920.852 536.232C919.593 537 918.153 537.384 916.532 537.384C915.06 537.384 913.726 537.053 912.532 536.392C911.358 535.709 910.473 534.749 909.876 533.512L910.26 533.16V543.4H907.86ZM916.404 534.984C917.556 534.984 918.58 534.696 919.476 534.12C920.393 533.544 921.108 532.765 921.62 531.784C922.153 530.781 922.42 529.661 922.42 528.424C922.42 527.165 922.153 526.045 921.62 525.064C921.108 524.083 920.393 523.304 919.476 522.728C918.58 522.152 917.556 521.864 916.404 521.864C915.252 521.864 914.206 522.152 913.268 522.728C912.35 523.304 911.614 524.093 911.06 525.096C910.526 526.077 910.26 527.187 910.26 528.424C910.26 529.661 910.526 530.781 911.06 531.784C911.614 532.765 912.35 533.544 913.268 534.12C914.206 534.696 915.252 534.984 916.404 534.984ZM936.915 537.384C935.294 537.384 933.822 537 932.499 536.232C931.177 535.443 930.121 534.376 929.331 533.032C928.563 531.667 928.179 530.12 928.179 528.392C928.179 526.685 928.563 525.16 929.331 523.816C930.099 522.472 931.134 521.416 932.435 520.648C933.758 519.859 935.251 519.464 936.915 519.464C938.579 519.464 940.062 519.848 941.363 520.616C942.686 521.384 943.721 522.44 944.467 523.784C945.235 525.128 945.619 526.664 945.619 528.392C945.619 530.141 945.225 531.699 944.435 533.064C943.646 534.408 942.59 535.464 941.267 536.232C939.966 537 938.515 537.384 936.915 537.384ZM936.915 534.984C938.067 534.984 939.102 534.696 940.019 534.12C940.958 533.544 941.694 532.755 942.227 531.752C942.782 530.749 943.059 529.629 943.059 528.392C943.059 527.155 942.782 526.045 942.227 525.064C941.694 524.083 940.958 523.304 940.019 522.728C939.102 522.152 938.067 521.864 936.915 521.864C935.763 521.864 934.718 522.152 933.779 522.728C932.862 523.304 932.126 524.083 931.571 525.064C931.017 526.045 930.739 527.155 930.739 528.392C930.739 529.629 931.017 530.749 931.571 531.752C932.126 532.755 932.862 533.544 933.779 534.12C934.718 534.696 935.763 534.984 936.915 534.984ZM952.996 537L947.108 519.848H949.828L954.692 534.856H953.732L958.308 519.848H960.708L965.284 534.856H964.324L969.22 519.848H971.908L966.02 537H963.62L959.172 522.312H959.844L955.396 537H952.996ZM981.895 537.384C980.295 537.384 978.844 537 977.543 536.232C976.263 535.443 975.25 534.365 974.503 533C973.756 531.635 973.383 530.088 973.383 528.36C973.383 526.632 973.746 525.107 974.471 523.784C975.196 522.44 976.178 521.384 977.415 520.616C978.674 519.848 980.082 519.464 981.639 519.464C982.876 519.464 983.975 519.699 984.935 520.168C985.916 520.616 986.748 521.235 987.431 522.024C988.114 522.792 988.636 523.667 988.999 524.648C989.362 525.608 989.543 526.6 989.543 527.624C989.543 527.837 989.532 528.083 989.511 528.36C989.49 528.616 989.458 528.883 989.415 529.16H974.919V526.92H988.039L986.887 527.88C987.079 526.707 986.94 525.661 986.471 524.744C986.023 523.805 985.372 523.069 984.519 522.536C983.666 521.981 982.706 521.704 981.639 521.704C980.572 521.704 979.58 521.981 978.663 522.536C977.767 523.091 977.063 523.869 976.551 524.872C976.039 525.853 975.836 527.027 975.943 528.392C975.836 529.757 976.05 530.952 976.583 531.976C977.138 532.979 977.884 533.757 978.823 534.312C979.783 534.867 980.807 535.144 981.895 535.144C983.154 535.144 984.21 534.845 985.063 534.248C985.916 533.651 986.61 532.904 987.143 532.008L989.191 533.096C988.85 533.864 988.327 534.579 987.623 535.24C986.919 535.88 986.076 536.403 985.095 536.808C984.135 537.192 983.068 537.384 981.895 537.384ZM993.455 537V519.848H995.855V522.664L995.535 522.248C995.94 521.437 996.548 520.797 997.359 520.328C998.191 519.859 999.193 519.624 1000.37 519.624H1001.45V522.024H999.951C998.713 522.024 997.721 522.408 996.975 523.176C996.228 523.944 995.855 525.032 995.855 526.44V537H993.455ZM1005.71 537V522.248H1002.28V519.848H1005.71V518.312C1005.71 517.117 1005.97 516.115 1006.51 515.304C1007.04 514.472 1007.74 513.843 1008.62 513.416C1009.49 512.989 1010.43 512.776 1011.44 512.776C1011.65 512.776 1011.89 512.797 1012.17 512.84C1012.45 512.861 1012.67 512.893 1012.84 512.936V515.112C1012.69 515.069 1012.49 515.048 1012.24 515.048C1011.98 515.027 1011.8 515.016 1011.69 515.016C1010.67 515.016 1009.81 515.261 1009.13 515.752C1008.45 516.243 1008.11 517.096 1008.11 518.312V519.848H1012.3V522.248H1008.11V537H1005.71ZM1022.27 537.384C1021.07 537.384 1019.99 537.107 1019.01 536.552C1018.02 535.976 1017.25 535.187 1016.67 534.184C1016.11 533.16 1015.84 531.987 1015.84 530.664V519.848H1018.24V530.376C1018.24 531.293 1018.42 532.104 1018.78 532.808C1019.17 533.491 1019.69 534.024 1020.35 534.408C1021.03 534.792 1021.81 534.984 1022.69 534.984C1023.56 534.984 1024.34 534.792 1025.02 534.408C1025.7 534.003 1026.24 533.437 1026.62 532.712C1027.01 531.965 1027.2 531.08 1027.2 530.056V519.848H1029.6V537H1027.2V533.672L1027.74 533.8C1027.34 534.909 1026.64 535.784 1025.66 536.424C1024.68 537.064 1023.55 537.384 1022.27 537.384ZM1034.21 537V512.776H1036.61V537H1034.21ZM1048.08 537V522.248H1044.66V519.848H1048.08V518.312C1048.08 517.117 1048.35 516.115 1048.88 515.304C1049.42 514.472 1050.12 513.843 1051 513.416C1051.87 512.989 1052.81 512.776 1053.81 512.776C1054.02 512.776 1054.27 512.797 1054.55 512.84C1054.82 512.861 1055.05 512.893 1055.22 512.936V515.112C1055.07 515.069 1054.87 515.048 1054.61 515.048C1054.36 515.027 1054.17 515.016 1054.07 515.016C1053.04 515.016 1052.19 515.261 1051.51 515.752C1050.82 516.243 1050.48 517.096 1050.48 518.312V519.848H1054.68V522.248H1050.48V537H1048.08ZM1065.63 537.384C1064.01 537.384 1062.54 537 1061.21 536.232C1059.89 535.443 1058.83 534.376 1058.05 533.032C1057.28 531.667 1056.89 530.12 1056.89 528.392C1056.89 526.685 1057.28 525.16 1058.05 523.816C1058.81 522.472 1059.85 521.416 1061.15 520.648C1062.47 519.859 1063.97 519.464 1065.63 519.464C1067.29 519.464 1068.78 519.848 1070.08 520.616C1071.4 521.384 1072.43 522.44 1073.18 523.784C1073.95 525.128 1074.33 526.664 1074.33 528.392C1074.33 530.141 1073.94 531.699 1073.15 533.064C1072.36 534.408 1071.3 535.464 1069.98 536.232C1068.68 537 1067.23 537.384 1065.63 537.384ZM1065.63 534.984C1066.78 534.984 1067.82 534.696 1068.73 534.12C1069.67 533.544 1070.41 532.755 1070.94 531.752C1071.5 530.749 1071.77 529.629 1071.77 528.392C1071.77 527.155 1071.5 526.045 1070.94 525.064C1070.41 524.083 1069.67 523.304 1068.73 522.728C1067.82 522.152 1066.78 521.864 1065.63 521.864C1064.48 521.864 1063.43 522.152 1062.49 522.728C1061.58 523.304 1060.84 524.083 1060.29 525.064C1059.73 526.045 1059.45 527.155 1059.45 528.392C1059.45 529.629 1059.73 530.749 1060.29 531.752C1060.84 532.755 1061.58 533.544 1062.49 534.12C1063.43 534.696 1064.48 534.984 1065.63 534.984ZM1078.25 537V519.848H1080.65V522.664L1080.33 522.248C1080.73 521.437 1081.34 520.797 1082.15 520.328C1082.98 519.859 1083.98 519.624 1085.16 519.624H1086.25V522.024H1084.74C1083.5 522.024 1082.51 522.408 1081.77 523.176C1081.02 523.944 1080.65 525.032 1080.65 526.44V537H1078.25ZM1088.74 537V519.848H1091.14V523.112L1090.75 522.632C1091.22 521.629 1091.92 520.851 1092.83 520.296C1093.77 519.741 1094.8 519.464 1095.91 519.464C1097.23 519.464 1098.42 519.837 1099.49 520.584C1100.56 521.331 1101.31 522.301 1101.76 523.496L1101.09 523.528C1101.52 522.205 1102.25 521.203 1103.3 520.52C1104.37 519.816 1105.54 519.464 1106.82 519.464C1107.97 519.464 1109.03 519.741 1109.99 520.296C1110.97 520.851 1111.75 521.619 1112.32 522.6C1112.92 523.56 1113.22 524.648 1113.22 525.864V537H1110.82V526.792C1110.82 525.747 1110.63 524.861 1110.24 524.136C1109.88 523.411 1109.38 522.856 1108.74 522.472C1108.1 522.067 1107.36 521.864 1106.53 521.864C1105.72 521.864 1104.98 522.067 1104.32 522.472C1103.66 522.856 1103.14 523.421 1102.75 524.168C1102.37 524.893 1102.18 525.768 1102.18 526.792V537H1099.78V526.792C1099.78 525.747 1099.59 524.861 1099.2 524.136C1098.84 523.411 1098.34 522.856 1097.7 522.472C1097.06 522.067 1096.32 521.864 1095.49 521.864C1094.66 521.864 1093.91 522.067 1093.25 522.472C1092.61 522.856 1092.1 523.421 1091.71 524.168C1091.33 524.893 1091.14 525.768 1091.14 526.792V537H1088.74ZM1123.43 537.384C1121.79 537.384 1120.35 536.968 1119.11 536.136C1117.88 535.304 1116.98 534.173 1116.42 532.744L1118.44 531.784C1118.93 532.829 1119.61 533.661 1120.49 534.28C1121.38 534.899 1122.37 535.208 1123.43 535.208C1124.46 535.208 1125.32 534.963 1126.02 534.472C1126.73 533.96 1127.08 533.299 1127.08 532.488C1127.08 531.891 1126.91 531.421 1126.57 531.08C1126.23 530.717 1125.83 530.44 1125.38 530.248C1124.94 530.056 1124.54 529.917 1124.2 529.832L1121.74 529.128C1120.16 528.68 1119.02 528.051 1118.31 527.24C1117.61 526.429 1117.26 525.491 1117.26 524.424C1117.26 523.421 1117.51 522.547 1118.02 521.8C1118.54 521.053 1119.23 520.477 1120.1 520.072C1120.98 519.667 1121.95 519.464 1123.02 519.464C1124.47 519.464 1125.78 519.848 1126.95 520.616C1128.15 521.363 1128.99 522.408 1129.48 523.752L1127.43 524.712C1127.01 523.752 1126.39 523.005 1125.58 522.472C1124.79 521.917 1123.9 521.64 1122.92 521.64C1121.96 521.64 1121.19 521.885 1120.62 522.376C1120.04 522.867 1119.75 523.485 1119.75 524.232C1119.75 524.808 1119.9 525.267 1120.2 525.608C1120.5 525.949 1120.84 526.205 1121.22 526.376C1121.63 526.547 1121.98 526.675 1122.28 526.76L1125.13 527.592C1126.52 527.997 1127.59 528.627 1128.36 529.48C1129.15 530.333 1129.54 531.336 1129.54 532.488C1129.54 533.427 1129.28 534.269 1128.74 535.016C1128.23 535.763 1127.52 536.349 1126.6 536.776C1125.68 537.181 1124.63 537.384 1123.43 537.384ZM1133.54 541.16V540.04C1134.18 539.869 1134.65 539.539 1134.95 539.048C1135.24 538.557 1135.39 537.875 1135.39 537H1134.18V533.48H1136.74V536.168C1136.74 537.555 1136.47 538.664 1135.94 539.496C1135.4 540.349 1134.6 540.904 1133.54 541.16ZM1150.64 537L1144.75 519.848H1147.47L1152.34 534.856H1151.38L1155.95 519.848H1158.35L1162.93 534.856H1161.97L1166.86 519.848H1169.55L1163.66 537H1161.26L1156.82 522.312H1157.49L1153.04 537H1150.64ZM1172.04 537V519.848H1174.44V537H1172.04ZM1172.04 516.68V513.16H1174.44V516.68H1172.04ZM1185.6 537.192C1184.06 537.192 1182.88 536.744 1182.05 535.848C1181.21 534.952 1180.8 533.672 1180.8 532.008V522.248H1177.63V519.848H1178.43C1179.15 519.848 1179.73 519.613 1180.16 519.144C1180.58 518.653 1180.8 518.045 1180.8 517.32V515.88H1183.2V519.848H1186.97V522.248H1183.2V532.008C1183.2 532.584 1183.28 533.096 1183.45 533.544C1183.62 533.971 1183.91 534.312 1184.32 534.568C1184.74 534.824 1185.31 534.952 1186.01 534.952C1186.18 534.952 1186.39 534.941 1186.62 534.92C1186.86 534.899 1187.06 534.877 1187.23 534.856V537C1186.97 537.064 1186.69 537.107 1186.37 537.128C1186.05 537.171 1185.79 537.192 1185.6 537.192ZM1191.12 537V512.776H1193.52V523.176L1192.98 523.048C1193.41 521.939 1194.1 521.064 1195.06 520.424C1196.04 519.784 1197.17 519.464 1198.45 519.464C1199.67 519.464 1200.76 519.741 1201.72 520.296C1202.7 520.851 1203.46 521.619 1204.02 522.6C1204.6 523.56 1204.88 524.648 1204.88 525.864V537H1202.48V526.792C1202.48 525.747 1202.29 524.861 1201.91 524.136C1201.52 523.411 1200.99 522.856 1200.31 522.472C1199.65 522.067 1198.89 521.864 1198.04 521.864C1197.18 521.864 1196.41 522.067 1195.73 522.472C1195.05 522.856 1194.5 523.421 1194.1 524.168C1193.72 524.893 1193.52 525.768 1193.52 526.792V537H1191.12ZM1217.18 537.384C1215.56 537.384 1214.09 537 1212.76 536.232C1211.44 535.443 1210.38 534.376 1209.6 533.032C1208.83 531.667 1208.44 530.12 1208.44 528.392C1208.44 526.685 1208.83 525.16 1209.6 523.816C1210.36 522.472 1211.4 521.416 1212.7 520.648C1214.02 519.859 1215.52 519.464 1217.18 519.464C1218.84 519.464 1220.33 519.848 1221.63 520.616C1222.95 521.384 1223.98 522.44 1224.73 523.784C1225.5 525.128 1225.88 526.664 1225.88 528.392C1225.88 530.141 1225.49 531.699 1224.7 533.064C1223.91 534.408 1222.85 535.464 1221.53 536.232C1220.23 537 1218.78 537.384 1217.18 537.384ZM1217.18 534.984C1218.33 534.984 1219.37 534.696 1220.28 534.12C1221.22 533.544 1221.96 532.755 1222.49 531.752C1223.05 530.749 1223.32 529.629 1223.32 528.392C1223.32 527.155 1223.05 526.045 1222.49 525.064C1221.96 524.083 1221.22 523.304 1220.28 522.728C1219.37 522.152 1218.33 521.864 1217.18 521.864C1216.03 521.864 1214.98 522.152 1214.04 522.728C1213.13 523.304 1212.39 524.083 1211.84 525.064C1211.28 526.045 1211 527.155 1211 528.392C1211 529.629 1211.28 530.749 1211.84 531.752C1212.39 532.755 1213.13 533.544 1214.04 534.12C1214.98 534.696 1216.03 534.984 1217.18 534.984ZM1235.88 537.384C1234.68 537.384 1233.59 537.107 1232.61 536.552C1231.63 535.976 1230.85 535.187 1230.28 534.184C1229.72 533.16 1229.44 531.987 1229.44 530.664V519.848H1231.84V530.376C1231.84 531.293 1232.03 532.104 1232.39 532.808C1232.77 533.491 1233.29 534.024 1233.96 534.408C1234.64 534.792 1235.42 534.984 1236.29 534.984C1237.17 534.984 1237.95 534.792 1238.63 534.408C1239.31 534.003 1239.84 533.437 1240.23 532.712C1240.61 531.965 1240.8 531.08 1240.8 530.056V519.848H1243.2V537H1240.8V533.672L1241.35 533.8C1240.94 534.909 1240.25 535.784 1239.27 536.424C1238.29 537.064 1237.16 537.384 1235.88 537.384ZM1254.38 537.192C1252.84 537.192 1251.66 536.744 1250.83 535.848C1250 534.952 1249.58 533.672 1249.58 532.008V522.248H1246.41V519.848H1247.21C1247.94 519.848 1248.51 519.613 1248.94 519.144C1249.37 518.653 1249.58 518.045 1249.58 517.32V515.88H1251.98V519.848H1255.76V522.248H1251.98V532.008C1251.98 532.584 1252.06 533.096 1252.24 533.544C1252.41 533.971 1252.69 534.312 1253.1 534.568C1253.53 534.824 1254.09 534.952 1254.8 534.952C1254.97 534.952 1255.17 534.941 1255.4 534.92C1255.64 534.899 1255.84 534.877 1256.01 534.856V537C1255.76 537.064 1255.47 537.107 1255.15 537.128C1254.83 537.171 1254.57 537.192 1254.38 537.192ZM1271.58 537.192C1270.05 537.192 1268.86 536.744 1268.03 535.848C1267.2 534.952 1266.78 533.672 1266.78 532.008V522.248H1263.62V519.848H1264.42C1265.14 519.848 1265.72 519.613 1266.14 519.144C1266.57 518.653 1266.78 518.045 1266.78 517.32V515.88H1269.18V519.848H1272.96V522.248H1269.18V532.008C1269.18 532.584 1269.27 533.096 1269.44 533.544C1269.61 533.971 1269.9 534.312 1270.3 534.568C1270.73 534.824 1271.3 534.952 1272 534.952C1272.17 534.952 1272.37 534.941 1272.61 534.92C1272.84 534.899 1273.04 534.877 1273.22 534.856V537C1272.96 537.064 1272.67 537.107 1272.35 537.128C1272.03 537.171 1271.78 537.192 1271.58 537.192ZM1277.11 537V512.776H1279.51V523.176L1278.97 523.048C1279.39 521.939 1280.09 521.064 1281.05 520.424C1282.03 519.784 1283.16 519.464 1284.44 519.464C1285.65 519.464 1286.74 519.741 1287.7 520.296C1288.68 520.851 1289.45 521.619 1290.01 522.6C1290.58 523.56 1290.87 524.648 1290.87 525.864V537H1288.47V526.792C1288.47 525.747 1288.28 524.861 1287.89 524.136C1287.51 523.411 1286.98 522.856 1286.29 522.472C1285.63 522.067 1284.87 521.864 1284.02 521.864C1283.17 521.864 1282.4 522.067 1281.72 522.472C1281.03 522.856 1280.49 523.421 1280.09 524.168C1279.7 524.893 1279.51 525.768 1279.51 526.792V537H1277.11ZM1302.94 537.384C1301.34 537.384 1299.89 537 1298.59 536.232C1297.31 535.443 1296.3 534.365 1295.55 533C1294.8 531.635 1294.43 530.088 1294.43 528.36C1294.43 526.632 1294.79 525.107 1295.52 523.784C1296.24 522.44 1297.22 521.384 1298.46 520.616C1299.72 519.848 1301.13 519.464 1302.69 519.464C1303.92 519.464 1305.02 519.699 1305.98 520.168C1306.96 520.616 1307.79 521.235 1308.48 522.024C1309.16 522.792 1309.68 523.667 1310.05 524.648C1310.41 525.608 1310.59 526.6 1310.59 527.624C1310.59 527.837 1310.58 528.083 1310.56 528.36C1310.54 528.616 1310.5 528.883 1310.46 529.16H1295.97V526.92H1309.09L1307.93 527.88C1308.13 526.707 1307.99 525.661 1307.52 524.744C1307.07 523.805 1306.42 523.069 1305.57 522.536C1304.71 521.981 1303.75 521.704 1302.69 521.704C1301.62 521.704 1300.63 521.981 1299.71 522.536C1298.81 523.091 1298.11 523.869 1297.6 524.872C1297.09 525.853 1296.88 527.027 1296.99 528.392C1296.88 529.757 1297.1 530.952 1297.63 531.976C1298.18 532.979 1298.93 533.757 1299.87 534.312C1300.83 534.867 1301.85 535.144 1302.94 535.144C1304.2 535.144 1305.26 534.845 1306.11 534.248C1306.96 533.651 1307.66 532.904 1308.19 532.008L1310.24 533.096C1309.9 533.864 1309.37 534.579 1308.67 535.24C1307.97 535.88 1307.12 536.403 1306.14 536.808C1305.18 537.192 1304.11 537.384 1302.94 537.384ZM1319.62 537V512.776H1322.02V523.176L1321.47 523.048C1321.9 521.939 1322.59 521.064 1323.55 520.424C1324.54 519.784 1325.67 519.464 1326.95 519.464C1328.16 519.464 1329.25 519.741 1330.21 520.296C1331.19 520.851 1331.96 521.619 1332.51 522.6C1333.09 523.56 1333.38 524.648 1333.38 525.864V537H1330.98V526.792C1330.98 525.747 1330.79 524.861 1330.4 524.136C1330.02 523.411 1329.49 522.856 1328.8 522.472C1328.14 522.067 1327.38 521.864 1326.53 521.864C1325.68 521.864 1324.91 522.067 1324.23 522.472C1323.54 522.856 1323 523.421 1322.59 524.168C1322.21 524.893 1322.02 525.768 1322.02 526.792V537H1319.62ZM1342.6 537.384C1341.51 537.384 1340.54 537.181 1339.69 536.776C1338.84 536.349 1338.16 535.773 1337.67 535.048C1337.18 534.323 1336.94 533.491 1336.94 532.552C1336.94 531.656 1337.13 530.845 1337.51 530.12C1337.9 529.373 1338.5 528.744 1339.31 528.232C1340.12 527.72 1341.15 527.357 1342.41 527.144L1349.13 526.024V528.2L1342.99 529.224C1341.75 529.437 1340.85 529.832 1340.3 530.408C1339.76 530.984 1339.5 531.667 1339.5 532.456C1339.5 533.224 1339.8 533.875 1340.39 534.408C1341.01 534.941 1341.8 535.208 1342.76 535.208C1343.94 535.208 1344.96 534.963 1345.83 534.472C1346.71 533.96 1347.39 533.277 1347.88 532.424C1348.37 531.571 1348.62 530.621 1348.62 529.576V525.224C1348.62 524.2 1348.24 523.368 1347.5 522.728C1346.75 522.088 1345.78 521.768 1344.59 521.768C1343.54 521.768 1342.62 522.035 1341.83 522.568C1341.04 523.08 1340.46 523.752 1340.07 524.584L1337.9 523.4C1338.22 522.675 1338.72 522.013 1339.4 521.416C1340.11 520.819 1340.91 520.349 1341.8 520.008C1342.7 519.645 1343.63 519.464 1344.59 519.464C1345.84 519.464 1346.95 519.709 1347.91 520.2C1348.9 520.691 1349.65 521.373 1350.19 522.248C1350.74 523.101 1351.02 524.093 1351.02 525.224V537H1348.62V533.576L1348.97 533.928C1348.67 534.568 1348.2 535.155 1347.56 535.688C1346.94 536.2 1346.21 536.616 1345.35 536.936C1344.52 537.235 1343.6 537.384 1342.6 537.384ZM1361.59 537.384C1359.94 537.384 1358.5 536.968 1357.27 536.136C1356.03 535.304 1355.13 534.173 1354.58 532.744L1356.59 531.784C1357.09 532.829 1357.77 533.661 1358.64 534.28C1359.54 534.899 1360.52 535.208 1361.59 535.208C1362.61 535.208 1363.47 534.963 1364.18 534.472C1364.88 533.96 1365.23 533.299 1365.23 532.488C1365.23 531.891 1365.06 531.421 1364.72 531.08C1364.38 530.717 1363.99 530.44 1363.54 530.248C1363.09 530.056 1362.7 529.917 1362.35 529.832L1359.89 529.128C1358.31 528.68 1357.17 528.051 1356.47 527.24C1355.76 526.429 1355.41 525.491 1355.41 524.424C1355.41 523.421 1355.67 522.547 1356.18 521.8C1356.69 521.053 1357.38 520.477 1358.26 520.072C1359.13 519.667 1360.1 519.464 1361.17 519.464C1362.62 519.464 1363.93 519.848 1365.11 520.616C1366.3 521.363 1367.14 522.408 1367.63 523.752L1365.59 524.712C1365.16 523.752 1364.54 523.005 1363.73 522.472C1362.94 521.917 1362.06 521.64 1361.07 521.64C1360.11 521.64 1359.35 521.885 1358.77 522.376C1358.19 522.867 1357.91 523.485 1357.91 524.232C1357.91 524.808 1358.06 525.267 1358.35 525.608C1358.65 525.949 1358.99 526.205 1359.38 526.376C1359.78 526.547 1360.14 526.675 1360.43 526.76L1363.28 527.592C1364.67 527.997 1365.75 528.627 1366.51 529.48C1367.3 530.333 1367.7 531.336 1367.7 532.488C1367.7 533.427 1367.43 534.269 1366.9 535.016C1366.39 535.763 1365.67 536.349 1364.75 536.776C1363.84 537.181 1362.78 537.384 1361.59 537.384ZM1377.55 537.384C1375.91 537.384 1374.47 536.968 1373.23 536.136C1371.99 535.304 1371.09 534.173 1370.54 532.744L1372.56 531.784C1373.05 532.829 1373.73 533.661 1374.6 534.28C1375.5 534.899 1376.48 535.208 1377.55 535.208C1378.57 535.208 1379.44 534.963 1380.14 534.472C1380.84 533.96 1381.2 533.299 1381.2 532.488C1381.2 531.891 1381.03 531.421 1380.68 531.08C1380.34 530.717 1379.95 530.44 1379.5 530.248C1379.05 530.056 1378.66 529.917 1378.32 529.832L1375.85 529.128C1374.27 528.68 1373.13 528.051 1372.43 527.24C1371.72 526.429 1371.37 525.491 1371.37 524.424C1371.37 523.421 1371.63 522.547 1372.14 521.8C1372.65 521.053 1373.35 520.477 1374.22 520.072C1375.09 519.667 1376.07 519.464 1377.13 519.464C1378.58 519.464 1379.89 519.848 1381.07 520.616C1382.26 521.363 1383.11 522.408 1383.6 523.752L1381.55 524.712C1381.12 523.752 1380.5 523.005 1379.69 522.472C1378.9 521.917 1378.02 521.64 1377.04 521.64C1376.08 521.64 1375.31 521.885 1374.73 522.376C1374.16 522.867 1373.87 523.485 1373.87 524.232C1373.87 524.808 1374.02 525.267 1374.32 525.608C1374.61 525.949 1374.96 526.205 1375.34 526.376C1375.75 526.547 1376.1 526.675 1376.4 526.76L1379.24 527.592C1380.63 527.997 1381.71 528.627 1382.48 529.48C1383.27 530.333 1383.66 531.336 1383.66 532.488C1383.66 533.427 1383.39 534.269 1382.86 535.016C1382.35 535.763 1381.63 536.349 1380.72 536.776C1379.8 537.181 1378.74 537.384 1377.55 537.384ZM1387.56 537V512.776H1389.96V537H1387.56ZM1402.36 537.384C1400.76 537.384 1399.31 537 1398.01 536.232C1396.73 535.443 1395.71 534.365 1394.97 533C1394.22 531.635 1393.85 530.088 1393.85 528.36C1393.85 526.632 1394.21 525.107 1394.93 523.784C1395.66 522.44 1396.64 521.384 1397.88 520.616C1399.14 519.848 1400.54 519.464 1402.1 519.464C1403.34 519.464 1404.44 519.699 1405.4 520.168C1406.38 520.616 1407.21 521.235 1407.89 522.024C1408.58 522.792 1409.1 523.667 1409.46 524.648C1409.82 525.608 1410.01 526.6 1410.01 527.624C1410.01 527.837 1409.99 528.083 1409.97 528.36C1409.95 528.616 1409.92 528.883 1409.88 529.16H1395.38V526.92H1408.5L1407.35 527.88C1407.54 526.707 1407.4 525.661 1406.93 524.744C1406.49 523.805 1405.83 523.069 1404.98 522.536C1404.13 521.981 1403.17 521.704 1402.1 521.704C1401.03 521.704 1400.04 521.981 1399.13 522.536C1398.23 523.091 1397.53 523.869 1397.01 524.872C1396.5 525.853 1396.3 527.027 1396.41 528.392C1396.3 529.757 1396.51 530.952 1397.05 531.976C1397.6 532.979 1398.35 533.757 1399.29 534.312C1400.25 534.867 1401.27 535.144 1402.36 535.144C1403.62 535.144 1404.67 534.845 1405.53 534.248C1406.38 533.651 1407.07 532.904 1407.61 532.008L1409.65 533.096C1409.31 533.864 1408.79 534.579 1408.09 535.24C1407.38 535.88 1406.54 536.403 1405.56 536.808C1404.6 537.192 1403.53 537.384 1402.36 537.384Z" fill="white"/>
<mask id="mask0_284_9646" style="mask-type:luminance" maskUnits="userSpaceOnUse" x="-195" y="0" width="2348" height="1082">
<path d="M2153 0H-195V1081.6H2153V0Z" fill="white"/>
</mask>
<g mask="url(#mask0_284_9646)">
<mask id="mask1_284_9646" style="mask-type:alpha" maskUnits="userSpaceOnUse" x="0" y="0" width="2380" height="1082">
<path d="M2379.92 0H0.666687V1081.6H2379.92V0Z" fill="url(#paint0_radial_284_9646)"/>
</mask>
<g mask="url(#mask1_284_9646)">
<path opacity="0.2" d="M352.571 1101.72C352.571 1101.72 335.947 511.944 1112.01 511.944C1888.07 511.944 2018.44 314.248 2018.44 314.248" stroke="#A399FF" stroke-width="0.981397"/>
<path opacity="0.2" d="M364.812 1139.77C364.812 1139.77 348.19 549.99 1124.25 549.99C1900.32 549.99 2030.68 352.294 2030.68 352.294" stroke="#A399FF" stroke-width="0.981397"/>
<path opacity="0.2" d="M377.055 1179.18C377.055 1179.18 360.431 589.396 1136.5 589.396C1912.56 589.396 2042.92 391.7 2042.92 391.7" stroke="#A399FF" stroke-width="0.981397"/>
<g filter="url(#filter0_d_284_9646)">
<path d="M2018.44 1086.05V274.584C2018.44 274.584 1888.07 472.281 1112.01 472.281C335.947 472.281 299.685 1062.06 299.685 1062.06V1086.05H2018.44Z" fill="#A399FF" fill-opacity="0.24"/>
</g>
<path d="M2017.32 277.226C2017.47 277.025 2017.62 276.836 2017.76 276.661V1085.37H300.364V1062.08V1062.08L300.37 1062C300.374 1061.93 300.381 1061.82 300.391 1061.68C300.412 1061.4 300.443 1060.98 300.489 1060.42C300.58 1059.31 300.73 1057.66 300.957 1055.51C301.411 1051.2 302.178 1044.87 303.43 1036.82C305.933 1020.72 310.376 997.707 318.131 970.091C333.64 914.856 362.395 841.21 415.375 767.566C521.311 620.314 724.18 472.96 1112.01 472.96C1500.09 472.96 1726.79 423.53 1856.49 374.067C1921.34 349.335 1961.95 324.593 1986.36 306.015C1998.56 296.726 2006.71 288.978 2011.82 283.544C2014.38 280.827 2016.16 278.689 2017.32 277.226Z" stroke="#A399FF" stroke-opacity="0.22" stroke-width="0.981397"/>
<path opacity="0.1" d="M246.799 1022.4C246.799 1022.4 335.947 432.616 1112.01 432.616C1888.07 432.616 2018.44 234.92 2018.44 234.92V1046.38" stroke="#A399FF" stroke-width="0.981397"/>
<path opacity="0.1" d="M193.913 982.732C193.913 982.732 335.947 392.951 1112.01 392.951C1888.07 392.951 2018.44 195.256 2018.44 195.256V1006.72" stroke="#A399FF" stroke-width="0.981397"/>
<path opacity="0.1" d="M141.028 943.067C141.028 943.067 335.947 353.287 1112.01 353.287C1888.07 353.287 2018.44 155.591 2018.44 155.591V967.055" stroke="#A399FF" stroke-width="0.981397"/>
<path d="M2017.32 118.569C2017.47 118.368 2017.62 118.18 2017.76 118.004V926.711H88.8213V903.541C88.8512 903.472 88.8933 903.373 88.949 903.245C89.0699 902.962 89.252 902.541 89.498 901.985C89.9885 900.874 90.7304 899.222 91.7305 897.065C93.732 892.754 96.7689 886.427 100.909 878.372C109.192 862.262 121.893 839.243 139.56 811.616C174.893 756.363 230.084 682.688 309.514 609.011C468.364 461.669 724.17 314.303 1112.01 314.303C1500.09 314.303 1726.79 264.873 1856.49 215.41C1921.34 190.678 1961.95 165.936 1986.36 147.358C1998.56 138.069 2006.71 130.322 2011.82 124.888C2014.38 122.171 2016.16 120.032 2017.32 118.569Z" stroke="#A399FF" stroke-opacity="0.08" stroke-width="0.981397"/>
<path opacity="0.12" d="M35.2563 863.738C35.2563 863.738 335.947 273.959 1112.01 273.959C1888.07 273.959 2018.44 76.2625 2018.44 76.2625V887.726" stroke="#A399FF" stroke-width="0.981397"/>
<path opacity="0.1" d="M-17.6293 824.075C-17.6293 824.075 335.947 234.295 1112.01 234.295C1888.07 234.295 2018.44 36.5991 2018.44 36.5991V848.063" stroke="#A399FF" stroke-width="0.981397"/>
<path d="M2018.44 808.398V-3.06567C2018.44 -3.06567 1888.07 194.631 1112.01 194.631C335.947 194.631 -70.5151 784.41 -70.5151 784.41V1087.7H2018.44V808.398Z" fill="#A399FF" fill-opacity="0.16"/>
<path d="M2017.32 -0.424242C2017.47 -0.625344 2017.62 -0.812858 2017.76 -0.989502V808.398V1087.02H-69.8357V784.623C-69.7895 784.558 -69.7311 784.474 -69.6604 784.372C-69.4634 784.09 -69.1672 783.668 -68.7718 783.112C-67.981 781.998 -66.7934 780.346 -65.2131 778.188C-62.0498 773.874 -57.309 767.544 -50.9987 759.487C-38.3782 743.371 -19.4801 720.347 5.62369 692.714C55.8312 637.448 130.858 563.758 230.129 490.066C428.668 342.684 724.161 195.31 1112.01 195.31C1500.09 195.31 1726.79 145.88 1856.49 96.4173C1921.34 71.6857 1961.95 46.9434 1986.36 28.3646C1998.56 19.0758 2006.71 11.328 2011.82 5.89415C2014.38 3.17792 2016.16 1.03918 2017.32 -0.424242Z" stroke="#A399FF" stroke-opacity="0.16" stroke-width="0.981397"/>
<path opacity="0.2" d="M-123.401 744.747C-123.401 744.747 335.947 154.967 1112.01 154.967C1888.07 154.967 2018.44 -42.7288 2018.44 -42.7288V768.735" stroke="#A399FF" stroke-width="0.981397"/>
<path opacity="0.2" d="M-176.287 705.082C-176.287 705.082 335.947 115.302 1112.01 115.302C1888.07 115.302 2018.44 -82.3933 2018.44 -82.3933V729.07" stroke="#A399FF" stroke-width="0.981397"/>
<path opacity="0.2" d="M-229.171 665.417C-229.171 665.417 335.947 75.6373 1112.01 75.6373C1888.07 75.6373 2018.44 -122.058 2018.44 -122.058" stroke="#A399FF" stroke-width="0.981397"/>
</g>
</g>
<defs>
<filter id="filter0_d_284_9646" x="294.91" y="271.004" width="1728.3" height="821.013" filterUnits="userSpaceOnUse" color-interpolation-filters="sRGB">
<feFlood flood-opacity="0" result="BackgroundImageFix"/>
<feColorMatrix in="SourceAlpha" type="matrix" values="0 0 0 0 0 0 0 0 0 0 0 0 0 0 0 0 0 0 127 0" result="hardAlpha"/>
<feOffset dy="1.19365"/>
<feGaussianBlur stdDeviation="2.38731"/>
<feComposite in2="hardAlpha" operator="out"/>
<feColorMatrix type="matrix" values="0 0 0 0 0 0 0 0 0 0 0 0 0 0 0 0 0 0 0.05 0"/>
<feBlend mode="normal" in2="BackgroundImageFix" result="effect1_dropShadow_284_9646"/>
<feBlend mode="normal" in="SourceGraphic" in2="effect1_dropShadow_284_9646" result="shape"/>
</filter>
<radialGradient id="paint0_radial_284_9646" cx="0" cy="0" r="1" gradientUnits="userSpaceOnUse" gradientTransform="translate(960.629 192.699) rotate(90) scale(814.169 686.537)">
<stop stop-color="#D9D9D9"/>
<stop offset="1" stop-color="#D9D9D9" stop-opacity="0"/>
</radialGradient>
</defs>
</svg>
