<svg width="2560" height="1000" viewBox="0 0 2560 1000" fill="none" xmlns="http://www.w3.org/2000/svg">
<path d="M0 0H2560V1000H0V0Z" fill="black"/>
<path d="M699.985 677V641.24H715.057C717.297 641.24 719.233 641.64 720.865 642.44C722.497 643.208 723.745 644.328 724.609 645.8C725.473 647.24 725.905 648.952 725.905 650.936C725.905 652.664 725.457 654.248 724.561 655.688C723.697 657.096 722.337 658.216 720.481 659.048V656.648C722.113 657.288 723.441 658.104 724.465 659.096C725.489 660.056 726.225 661.144 726.673 662.36C727.153 663.576 727.393 664.856 727.393 666.2C727.393 669.56 726.289 672.2 724.081 674.12C721.905 676.04 718.913 677 715.105 677H699.985ZM705.649 671.96H715.537C717.425 671.96 718.929 671.448 720.049 670.424C721.169 669.368 721.729 667.976 721.729 666.248C721.729 664.488 721.169 663.096 720.049 662.072C718.929 661.016 717.425 660.488 715.537 660.488H705.649V671.96ZM705.649 655.496H715.201C716.737 655.496 717.969 655.064 718.897 654.2C719.825 653.304 720.289 652.136 720.289 650.696C720.289 649.256 719.825 648.136 718.897 647.336C717.969 646.536 716.737 646.136 715.201 646.136H705.649V655.496Z" fill="#737373"/>
<path d="M741.955 677.576C740.003 677.576 738.291 677.144 736.819 676.28C735.347 675.384 734.195 674.152 733.363 672.584C732.563 670.984 732.163 669.144 732.163 667.064V651.032H737.587V666.584C737.587 667.768 737.827 668.808 738.307 669.704C738.787 670.6 739.459 671.304 740.323 671.816C741.187 672.296 742.179 672.536 743.299 672.536C744.451 672.536 745.459 672.28 746.323 671.768C747.187 671.256 747.859 670.536 748.339 669.608C748.851 668.68 749.107 667.592 749.107 666.344V651.032H754.483V677H749.347V671.912L749.923 672.584C749.315 674.184 748.307 675.416 746.899 676.28C745.491 677.144 743.843 677.576 741.955 677.576Z" fill="#737373"/>
<path d="M760.816 677V651.032H766.24V677H760.816ZM760.816 647.48V641.24H766.24V647.48H760.816Z" fill="#737373"/>
<path d="M772.582 677V640.664H778.006V677H772.582Z" fill="#737373"/>
<path d="M796.348 677.576C793.852 677.576 791.612 676.984 789.628 675.8C787.676 674.584 786.124 672.952 784.972 670.904C783.852 668.856 783.292 666.552 783.292 663.992C783.292 661.432 783.868 659.128 785.02 657.08C786.172 655.032 787.724 653.416 789.676 652.232C791.628 651.048 793.836 650.456 796.3 650.456C798.38 650.456 800.22 650.872 801.82 651.704C803.42 652.536 804.684 653.688 805.612 655.16L804.796 656.408V640.664H810.172V677H805.036V671.72L805.66 672.728C804.764 674.296 803.484 675.496 801.82 676.328C800.156 677.16 798.332 677.576 796.348 677.576ZM796.876 672.536C798.38 672.536 799.724 672.168 800.908 671.432C802.124 670.696 803.068 669.688 803.74 668.408C804.444 667.096 804.796 665.624 804.796 663.992C804.796 662.36 804.444 660.904 803.74 659.624C803.068 658.344 802.124 657.336 800.908 656.6C799.724 655.864 798.38 655.496 796.876 655.496C795.372 655.496 794.012 655.864 792.796 656.6C791.58 657.336 790.636 658.344 789.964 659.624C789.292 660.904 788.956 662.36 788.956 663.992C788.956 665.624 789.292 667.096 789.964 668.408C790.636 669.688 791.564 670.696 792.748 671.432C793.964 672.168 795.34 672.536 796.876 672.536Z" fill="#737373"/>
<path d="M831.759 677V646.28H822.255V641.24H846.735V646.28H837.375V677H831.759Z" fill="#737373"/>
<path d="M850.441 677V640.664H855.865V656.12L855.001 655.448C855.641 653.816 856.665 652.584 858.073 651.752C859.481 650.888 861.113 650.456 862.969 650.456C864.889 650.456 866.585 650.872 868.057 651.704C869.529 652.536 870.681 653.688 871.513 655.16C872.345 656.632 872.761 658.312 872.761 660.2V677H867.385V661.688C867.385 660.376 867.129 659.272 866.617 658.376C866.137 657.448 865.465 656.744 864.601 656.264C863.737 655.752 862.745 655.496 861.625 655.496C860.537 655.496 859.545 655.752 858.649 656.264C857.785 656.744 857.097 657.448 856.585 658.376C856.105 659.304 855.865 660.408 855.865 661.688V677H850.441Z" fill="#737373"/>
<path d="M890.758 677.576C888.166 677.576 885.862 676.984 883.846 675.8C881.862 674.584 880.31 672.952 879.19 670.904C878.07 668.824 877.51 666.504 877.51 663.944C877.51 661.32 878.07 659 879.19 656.984C880.342 654.968 881.878 653.384 883.798 652.232C885.718 651.048 887.894 650.456 890.326 650.456C892.278 650.456 894.022 650.792 895.558 651.464C897.094 652.136 898.39 653.064 899.446 654.248C900.502 655.4 901.302 656.728 901.846 658.232C902.422 659.736 902.71 661.336 902.71 663.032C902.71 663.448 902.694 663.88 902.662 664.328C902.63 664.776 902.566 665.192 902.47 665.576H881.782V661.256H899.398L896.806 663.224C897.126 661.656 897.014 660.264 896.47 659.048C895.958 657.8 895.158 656.824 894.07 656.12C893.014 655.384 891.766 655.016 890.326 655.016C888.886 655.016 887.606 655.384 886.486 656.12C885.366 656.824 884.502 657.848 883.894 659.192C883.286 660.504 883.046 662.104 883.174 663.992C883.014 665.752 883.254 667.288 883.894 668.6C884.566 669.912 885.494 670.936 886.678 671.672C887.894 672.408 889.27 672.776 890.806 672.776C892.374 672.776 893.702 672.424 894.79 671.72C895.91 671.016 896.79 670.104 897.43 668.984L901.846 671.144C901.334 672.36 900.534 673.464 899.446 674.456C898.39 675.416 897.11 676.184 895.606 676.76C894.134 677.304 892.518 677.576 890.758 677.576Z" fill="#737373"/>
<path d="M916.923 677V641.24H922.203L935.643 659.864H933.003L946.203 641.24H951.483V677H945.867V647.912L947.979 648.488L934.491 666.92H933.915L920.715 648.488L922.587 647.912V677H916.923Z" fill="#737373"/>
<path d="M970.876 677.576C968.38 677.576 966.092 676.984 964.012 675.8C961.964 674.616 960.332 673 959.116 670.952C957.9 668.904 957.292 666.584 957.292 663.992C957.292 661.368 957.9 659.048 959.116 657.032C960.332 654.984 961.964 653.384 964.012 652.232C966.06 651.048 968.348 650.456 970.876 650.456C973.436 650.456 975.724 651.048 977.74 652.232C979.788 653.384 981.404 654.984 982.588 657.032C983.804 659.048 984.412 661.368 984.412 663.992C984.412 666.616 983.804 668.952 982.588 671C981.372 673.048 979.74 674.664 977.692 675.848C975.644 677 973.372 677.576 970.876 677.576ZM970.876 672.536C972.412 672.536 973.772 672.168 974.956 671.432C976.14 670.696 977.068 669.688 977.74 668.408C978.444 667.096 978.796 665.624 978.796 663.992C978.796 662.36 978.444 660.904 977.74 659.624C977.068 658.344 976.14 657.336 974.956 656.6C973.772 655.864 972.412 655.496 970.876 655.496C969.372 655.496 968.012 655.864 966.796 656.6C965.612 657.336 964.668 658.344 963.964 659.624C963.292 660.904 962.956 662.36 962.956 663.992C962.956 665.624 963.292 667.096 963.964 668.408C964.668 669.688 965.612 670.696 966.796 671.432C968.012 672.168 969.372 672.536 970.876 672.536Z" fill="#737373"/>
<path d="M999.307 677.576C996.651 677.576 994.315 676.92 992.299 675.608C990.315 674.296 988.923 672.536 988.123 670.328L992.299 668.36C993.003 669.832 993.963 671 995.179 671.864C996.427 672.728 997.803 673.16 999.307 673.16C1000.59 673.16 1001.63 672.872 1002.43 672.296C1003.23 671.72 1003.63 670.936 1003.63 669.944C1003.63 669.304 1003.45 668.792 1003.1 668.408C1002.75 667.992 1002.3 667.656 1001.76 667.4C1001.24 667.144 1000.72 666.952 1000.17 666.824L996.091 665.672C993.851 665.032 992.171 664.072 991.051 662.792C989.963 661.48 989.419 659.96 989.419 658.232C989.419 656.664 989.819 655.304 990.619 654.152C991.419 652.968 992.523 652.056 993.931 651.416C995.339 650.776 996.923 650.456 998.683 650.456C1001.05 650.456 1003.16 651.048 1005.02 652.232C1006.88 653.384 1008.19 655 1008.96 657.08L1004.78 659.048C1004.27 657.8 1003.45 656.808 1002.33 656.072C1001.24 655.336 1000.01 654.968 998.635 654.968C997.451 654.968 996.507 655.256 995.803 655.832C995.099 656.376 994.747 657.096 994.747 657.992C994.747 658.6 994.907 659.112 995.227 659.528C995.547 659.912 995.963 660.232 996.475 660.488C996.987 660.712 997.515 660.904 998.059 661.064L1002.28 662.312C1004.43 662.92 1006.08 663.88 1007.23 665.192C1008.38 666.472 1008.96 668.008 1008.96 669.8C1008.96 671.336 1008.54 672.696 1007.71 673.88C1006.91 675.032 1005.79 675.944 1004.35 676.616C1002.91 677.256 1001.23 677.576 999.307 677.576Z" fill="#737373"/>
<path d="M1025.5 677.288C1022.78 677.288 1020.67 676.52 1019.17 674.984C1017.66 673.448 1016.91 671.288 1016.91 668.504V655.928H1012.35V651.032H1013.07C1014.29 651.032 1015.23 650.68 1015.9 649.976C1016.57 649.272 1016.91 648.312 1016.91 647.096V645.08H1022.33V651.032H1028.24V655.928H1022.33V668.264C1022.33 669.16 1022.48 669.928 1022.77 670.568C1023.05 671.176 1023.52 671.656 1024.16 672.008C1024.8 672.328 1025.63 672.488 1026.65 672.488C1026.91 672.488 1027.2 672.472 1027.52 672.44C1027.84 672.408 1028.14 672.376 1028.43 672.344V677C1027.98 677.064 1027.49 677.128 1026.94 677.192C1026.4 677.256 1025.92 677.288 1025.5 677.288Z" fill="#737373"/>
<path d="M1042.64 677V641.24H1055.65C1058.05 641.24 1060.16 641.688 1061.99 642.584C1063.84 643.448 1065.28 644.728 1066.31 646.424C1067.33 648.088 1067.84 650.088 1067.84 652.424C1067.84 654.728 1067.31 656.712 1066.26 658.376C1065.23 660.04 1063.81 661.32 1061.99 662.216C1060.16 663.112 1058.05 663.56 1055.65 663.56H1048.31V677H1042.64ZM1048.31 658.52H1055.79C1057.07 658.52 1058.19 658.264 1059.15 657.752C1060.11 657.24 1060.87 656.536 1061.41 655.64C1061.95 654.712 1062.23 653.624 1062.23 652.376C1062.23 651.128 1061.95 650.056 1061.41 649.16C1060.87 648.232 1060.11 647.528 1059.15 647.048C1058.19 646.536 1057.07 646.28 1055.79 646.28H1048.31V658.52Z" fill="#737373"/>
<path d="M1084.74 677.576C1082.24 677.576 1079.95 676.984 1077.87 675.8C1075.82 674.616 1074.19 673 1072.98 670.952C1071.76 668.904 1071.15 666.584 1071.15 663.992C1071.15 661.368 1071.76 659.048 1072.98 657.032C1074.19 654.984 1075.82 653.384 1077.87 652.232C1079.92 651.048 1082.21 650.456 1084.74 650.456C1087.3 650.456 1089.58 651.048 1091.6 652.232C1093.65 653.384 1095.26 654.984 1096.45 657.032C1097.66 659.048 1098.27 661.368 1098.27 663.992C1098.27 666.616 1097.66 668.952 1096.45 671C1095.23 673.048 1093.6 674.664 1091.55 675.848C1089.5 677 1087.23 677.576 1084.74 677.576ZM1084.74 672.536C1086.27 672.536 1087.63 672.168 1088.82 671.432C1090 670.696 1090.93 669.688 1091.6 668.408C1092.3 667.096 1092.66 665.624 1092.66 663.992C1092.66 662.36 1092.3 660.904 1091.6 659.624C1090.93 658.344 1090 657.336 1088.82 656.6C1087.63 655.864 1086.27 655.496 1084.74 655.496C1083.23 655.496 1081.87 655.864 1080.66 656.6C1079.47 657.336 1078.53 658.344 1077.82 659.624C1077.15 660.904 1076.82 662.36 1076.82 663.992C1076.82 665.624 1077.15 667.096 1077.82 668.408C1078.53 669.688 1079.47 670.696 1080.66 671.432C1081.87 672.168 1083.23 672.536 1084.74 672.536Z" fill="#737373"/>
<path d="M1109.39 677L1100.46 651.032H1106.22L1113.03 671.72H1111.02L1117.98 651.032H1122.92L1129.83 671.72H1127.82L1134.68 651.032H1140.44L1131.47 677H1126.57L1119.56 655.832H1121.34L1114.33 677H1109.39Z" fill="#737373"/>
<path d="M1155.88 677.576C1153.29 677.576 1150.99 676.984 1148.97 675.8C1146.99 674.584 1145.44 672.952 1144.32 670.904C1143.2 668.824 1142.64 666.504 1142.64 663.944C1142.64 661.32 1143.2 659 1144.32 656.984C1145.47 654.968 1147 653.384 1148.92 652.232C1150.84 651.048 1153.02 650.456 1155.45 650.456C1157.4 650.456 1159.15 650.792 1160.68 651.464C1162.22 652.136 1163.52 653.064 1164.57 654.248C1165.63 655.4 1166.43 656.728 1166.97 658.232C1167.55 659.736 1167.84 661.336 1167.84 663.032C1167.84 663.448 1167.82 663.88 1167.79 664.328C1167.76 664.776 1167.69 665.192 1167.6 665.576H1146.91V661.256H1164.52L1161.93 663.224C1162.25 661.656 1162.14 660.264 1161.6 659.048C1161.08 657.8 1160.28 656.824 1159.2 656.12C1158.14 655.384 1156.89 655.016 1155.45 655.016C1154.01 655.016 1152.73 655.384 1151.61 656.12C1150.49 656.824 1149.63 657.848 1149.02 659.192C1148.41 660.504 1148.17 662.104 1148.3 663.992C1148.14 665.752 1148.38 667.288 1149.02 668.6C1149.69 669.912 1150.62 670.936 1151.8 671.672C1153.02 672.408 1154.4 672.776 1155.93 672.776C1157.5 672.776 1158.83 672.424 1159.92 671.72C1161.04 671.016 1161.92 670.104 1162.56 668.984L1166.97 671.144C1166.46 672.36 1165.66 673.464 1164.57 674.456C1163.52 675.416 1162.24 676.184 1160.73 676.76C1159.26 677.304 1157.64 677.576 1155.88 677.576Z" fill="#737373"/>
<path d="M1173.13 677V651.032H1178.31V656.264L1177.83 655.496C1178.41 653.8 1179.34 652.584 1180.62 651.848C1181.9 651.08 1183.43 650.696 1185.22 650.696H1186.81V655.64H1184.55C1182.76 655.64 1181.3 656.2 1180.18 657.32C1179.1 658.408 1178.55 659.976 1178.55 662.024V677H1173.13Z" fill="#737373"/>
<path d="M1193.45 677V655.928H1188.65V651.032H1193.45V649.688C1193.45 647.736 1193.85 646.104 1194.65 644.792C1195.45 643.448 1196.55 642.424 1197.96 641.72C1199.4 641.016 1201.05 640.664 1202.9 640.664C1203.26 640.664 1203.66 640.696 1204.1 640.76C1204.55 640.792 1204.92 640.84 1205.21 640.904V645.608C1204.95 645.544 1204.66 645.512 1204.34 645.512C1204.02 645.48 1203.77 645.464 1203.58 645.464C1202.14 645.464 1200.98 645.8 1200.12 646.472C1199.26 647.112 1198.82 648.184 1198.82 649.688V651.032H1204.78V655.928H1198.82V677H1193.45Z" fill="#737373"/>
<path d="M1219.1 677.576C1217.14 677.576 1215.43 677.144 1213.96 676.28C1212.49 675.384 1211.34 674.152 1210.5 672.584C1209.7 670.984 1209.3 669.144 1209.3 667.064V651.032H1214.73V666.584C1214.73 667.768 1214.97 668.808 1215.45 669.704C1215.93 670.6 1216.6 671.304 1217.46 671.816C1218.33 672.296 1219.32 672.536 1220.44 672.536C1221.59 672.536 1222.6 672.28 1223.46 671.768C1224.33 671.256 1225 670.536 1225.48 669.608C1225.99 668.68 1226.25 667.592 1226.25 666.344V651.032H1231.62V677H1226.49V671.912L1227.06 672.584C1226.46 674.184 1225.45 675.416 1224.04 676.28C1222.63 677.144 1220.98 677.576 1219.1 677.576Z" fill="#737373"/>
<path d="M1237.96 677V640.664H1243.38V677H1237.96Z" fill="#737373"/>
<path d="M1258.64 677V641.24H1281.92V646.28H1264.31V657.032H1280V662.072H1264.31V677H1258.64Z" fill="#737373"/>
<path d="M1297.97 677.576C1295.47 677.576 1293.19 676.984 1291.11 675.8C1289.06 674.616 1287.43 673 1286.21 670.952C1284.99 668.904 1284.39 666.584 1284.39 663.992C1284.39 661.368 1284.99 659.048 1286.21 657.032C1287.43 654.984 1289.06 653.384 1291.11 652.232C1293.15 651.048 1295.44 650.456 1297.97 650.456C1300.53 650.456 1302.82 651.048 1304.83 652.232C1306.88 653.384 1308.5 654.984 1309.68 657.032C1310.9 659.048 1311.51 661.368 1311.51 663.992C1311.51 666.616 1310.9 668.952 1309.68 671C1308.47 673.048 1306.83 674.664 1304.79 675.848C1302.74 677 1300.47 677.576 1297.97 677.576ZM1297.97 672.536C1299.51 672.536 1300.87 672.168 1302.05 671.432C1303.23 670.696 1304.16 669.688 1304.83 668.408C1305.54 667.096 1305.89 665.624 1305.89 663.992C1305.89 662.36 1305.54 660.904 1304.83 659.624C1304.16 658.344 1303.23 657.336 1302.05 656.6C1300.87 655.864 1299.51 655.496 1297.97 655.496C1296.47 655.496 1295.11 655.864 1293.89 656.6C1292.71 657.336 1291.76 658.344 1291.06 659.624C1290.39 660.904 1290.05 662.36 1290.05 663.992C1290.05 665.624 1290.39 667.096 1291.06 668.408C1291.76 669.688 1292.71 670.696 1293.89 671.432C1295.11 672.168 1296.47 672.536 1297.97 672.536Z" fill="#737373"/>
<path d="M1316.8 677V651.032H1321.98V656.264L1321.5 655.496C1322.08 653.8 1323.01 652.584 1324.29 651.848C1325.57 651.08 1327.1 650.696 1328.9 650.696H1330.48V655.64H1328.22C1326.43 655.64 1324.98 656.2 1323.86 657.32C1322.77 658.408 1322.22 659.976 1322.22 662.024V677H1316.8Z" fill="#737373"/>
<path d="M1334.19 677V651.032H1339.38V656.648L1338.7 655.784C1339.25 654.024 1340.24 652.696 1341.68 651.8C1343.12 650.904 1344.77 650.456 1346.62 650.456C1348.7 650.456 1350.54 651.016 1352.14 652.136C1353.78 653.224 1354.86 654.68 1355.41 656.504L1353.87 656.648C1354.64 654.568 1355.81 653.016 1357.38 651.992C1358.98 650.968 1360.8 650.456 1362.85 650.456C1364.64 650.456 1366.26 650.872 1367.7 651.704C1369.17 652.536 1370.34 653.688 1371.2 655.16C1372.06 656.632 1372.5 658.312 1372.5 660.2V677H1367.07V661.688C1367.07 660.376 1366.83 659.272 1366.35 658.376C1365.9 657.448 1365.26 656.744 1364.43 656.264C1363.63 655.752 1362.69 655.496 1361.6 655.496C1360.51 655.496 1359.55 655.752 1358.72 656.264C1357.89 656.744 1357.23 657.448 1356.75 658.376C1356.27 659.304 1356.03 660.408 1356.03 661.688V677H1350.66V661.688C1350.66 660.376 1350.42 659.272 1349.94 658.376C1349.49 657.448 1348.85 656.744 1348.02 656.264C1347.22 655.752 1346.26 655.496 1345.14 655.496C1344.05 655.496 1343.09 655.752 1342.26 656.264C1341.42 656.744 1340.77 657.448 1340.29 658.376C1339.84 659.304 1339.62 660.408 1339.62 661.688V677H1334.19Z" fill="#737373"/>
<path d="M1387.9 677.576C1385.24 677.576 1382.91 676.92 1380.89 675.608C1378.91 674.296 1377.52 672.536 1376.72 670.328L1380.89 668.36C1381.6 669.832 1382.56 671 1383.77 671.864C1385.02 672.728 1386.4 673.16 1387.9 673.16C1389.18 673.16 1390.22 672.872 1391.02 672.296C1391.82 671.72 1392.22 670.936 1392.22 669.944C1392.22 669.304 1392.04 668.792 1391.69 668.408C1391.34 667.992 1390.89 667.656 1390.35 667.4C1389.84 667.144 1389.31 666.952 1388.76 666.824L1384.68 665.672C1382.44 665.032 1380.76 664.072 1379.64 662.792C1378.56 661.48 1378.01 659.96 1378.01 658.232C1378.01 656.664 1378.41 655.304 1379.21 654.152C1380.01 652.968 1381.12 652.056 1382.52 651.416C1383.93 650.776 1385.52 650.456 1387.28 650.456C1389.64 650.456 1391.76 651.048 1393.61 652.232C1395.47 653.384 1396.78 655 1397.55 657.08L1393.37 659.048C1392.86 657.8 1392.04 656.808 1390.92 656.072C1389.84 655.336 1388.6 654.968 1387.23 654.968C1386.04 654.968 1385.1 655.256 1384.4 655.832C1383.69 656.376 1383.34 657.096 1383.34 657.992C1383.34 658.6 1383.5 659.112 1383.82 659.528C1384.14 659.912 1384.56 660.232 1385.07 660.488C1385.58 660.712 1386.11 660.904 1386.65 661.064L1390.88 662.312C1393.02 662.92 1394.67 663.88 1395.82 665.192C1396.97 666.472 1397.55 668.008 1397.55 669.8C1397.55 671.336 1397.13 672.696 1396.3 673.88C1395.5 675.032 1394.38 675.944 1392.94 676.616C1391.5 677.256 1389.82 677.576 1387.9 677.576Z" fill="#737373"/>
<path d="M1404.26 684.056V681.416C1405.31 681.16 1406.13 680.664 1406.7 679.928C1407.28 679.224 1407.63 678.248 1407.76 677H1405.22V670.76H1410.74V674.84C1410.74 677.4 1410.19 679.464 1409.1 681.032C1408.02 682.6 1406.4 683.608 1404.26 684.056Z" fill="#737373"/>
<path d="M1434.2 677L1424.36 641.24H1430.36L1438.33 672.2H1436.84L1445.1 641.24H1451L1459.26 672.2H1457.72L1465.74 641.24H1471.69L1461.9 677H1455.52L1447.21 646.52H1448.89L1440.54 677H1434.2Z" fill="#737373"/>
<path d="M1475.38 677V651.032H1480.8V677H1475.38ZM1475.38 647.48V641.24H1480.8V647.48H1475.38Z" fill="#737373"/>
<path d="M1498.38 677.288C1495.66 677.288 1493.54 676.52 1492.04 674.984C1490.54 673.448 1489.78 671.288 1489.78 668.504V655.928H1485.22V651.032H1485.94C1487.16 651.032 1488.1 650.68 1488.78 649.976C1489.45 649.272 1489.78 648.312 1489.78 647.096V645.08H1495.21V651.032H1501.11V655.928H1495.21V668.264C1495.21 669.16 1495.35 669.928 1495.64 670.568C1495.93 671.176 1496.39 671.656 1497.03 672.008C1497.67 672.328 1498.5 672.488 1499.53 672.488C1499.78 672.488 1500.07 672.472 1500.39 672.44C1500.71 672.408 1501.02 672.376 1501.3 672.344V677C1500.86 677.064 1500.36 677.128 1499.82 677.192C1499.27 677.256 1498.79 677.288 1498.38 677.288Z" fill="#737373"/>
<path d="M1506.6 677V640.664H1512.02V656.12L1511.16 655.448C1511.8 653.816 1512.82 652.584 1514.23 651.752C1515.64 650.888 1517.27 650.456 1519.13 650.456C1521.05 650.456 1522.74 650.872 1524.21 651.704C1525.69 652.536 1526.84 653.688 1527.67 655.16C1528.5 656.632 1528.92 658.312 1528.92 660.2V677H1523.54V661.688C1523.54 660.376 1523.29 659.272 1522.77 658.376C1522.29 657.448 1521.62 656.744 1520.76 656.264C1519.89 655.752 1518.9 655.496 1517.78 655.496C1516.69 655.496 1515.7 655.752 1514.81 656.264C1513.94 656.744 1513.25 657.448 1512.74 658.376C1512.26 659.304 1512.02 660.408 1512.02 661.688V677H1506.6Z" fill="#737373"/>
<path d="M1547.25 677.576C1544.75 677.576 1542.47 676.984 1540.39 675.8C1538.34 674.616 1536.71 673 1535.49 670.952C1534.27 668.904 1533.67 666.584 1533.67 663.992C1533.67 661.368 1534.27 659.048 1535.49 657.032C1536.71 654.984 1538.34 653.384 1540.39 652.232C1542.43 651.048 1544.72 650.456 1547.25 650.456C1549.81 650.456 1552.1 651.048 1554.11 652.232C1556.16 653.384 1557.78 654.984 1558.96 657.032C1560.18 659.048 1560.79 661.368 1560.79 663.992C1560.79 666.616 1560.18 668.952 1558.96 671C1557.75 673.048 1556.11 674.664 1554.07 675.848C1552.02 677 1549.75 677.576 1547.25 677.576ZM1547.25 672.536C1548.79 672.536 1550.15 672.168 1551.33 671.432C1552.51 670.696 1553.44 669.688 1554.11 668.408C1554.82 667.096 1555.17 665.624 1555.17 663.992C1555.17 662.36 1554.82 660.904 1554.11 659.624C1553.44 658.344 1552.51 657.336 1551.33 656.6C1550.15 655.864 1548.79 655.496 1547.25 655.496C1545.75 655.496 1544.39 655.864 1543.17 656.6C1541.99 657.336 1541.04 658.344 1540.34 659.624C1539.67 660.904 1539.33 662.36 1539.33 663.992C1539.33 665.624 1539.67 667.096 1540.34 668.408C1541.04 669.688 1541.99 670.696 1543.17 671.432C1544.39 672.168 1545.75 672.536 1547.25 672.536Z" fill="#737373"/>
<path d="M1575.35 677.576C1573.39 677.576 1571.68 677.144 1570.21 676.28C1568.74 675.384 1567.59 674.152 1566.75 672.584C1565.95 670.984 1565.55 669.144 1565.55 667.064V651.032H1570.98V666.584C1570.98 667.768 1571.22 668.808 1571.7 669.704C1572.18 670.6 1572.85 671.304 1573.71 671.816C1574.58 672.296 1575.57 672.536 1576.69 672.536C1577.84 672.536 1578.85 672.28 1579.71 671.768C1580.58 671.256 1581.25 670.536 1581.73 669.608C1582.24 668.68 1582.5 667.592 1582.5 666.344V651.032H1587.87V677H1582.74V671.912L1583.31 672.584C1582.71 674.184 1581.7 675.416 1580.29 676.28C1578.88 677.144 1577.23 677.576 1575.35 677.576Z" fill="#737373"/>
<path d="M1605.44 677.288C1602.72 677.288 1600.61 676.52 1599.1 674.984C1597.6 673.448 1596.85 671.288 1596.85 668.504V655.928H1592.29V651.032H1593.01C1594.22 651.032 1595.17 650.68 1595.84 649.976C1596.51 649.272 1596.85 648.312 1596.85 647.096V645.08H1602.27V651.032H1608.18V655.928H1602.27V668.264C1602.27 669.16 1602.42 669.928 1602.7 670.568C1602.99 671.176 1603.46 671.656 1604.1 672.008C1604.74 672.328 1605.57 672.488 1606.59 672.488C1606.85 672.488 1607.14 672.472 1607.46 672.44C1607.78 672.408 1608.08 672.376 1608.37 672.344V677C1607.92 677.064 1607.42 677.128 1606.88 677.192C1606.34 677.256 1605.86 677.288 1605.44 677.288Z" fill="#737373"/>
<path d="M1628.91 677V646.28H1619.41V641.24H1643.89V646.28H1634.53V677H1628.91Z" fill="#737373"/>
<path d="M1647.6 677V640.664H1653.02V656.12L1652.16 655.448C1652.8 653.816 1653.82 652.584 1655.23 651.752C1656.64 650.888 1658.27 650.456 1660.13 650.456C1662.05 650.456 1663.74 650.872 1665.21 651.704C1666.69 652.536 1667.84 653.688 1668.67 655.16C1669.5 656.632 1669.92 658.312 1669.92 660.2V677H1664.54V661.688C1664.54 660.376 1664.29 659.272 1663.77 658.376C1663.29 657.448 1662.62 656.744 1661.76 656.264C1660.89 655.752 1659.9 655.496 1658.78 655.496C1657.69 655.496 1656.7 655.752 1655.81 656.264C1654.94 656.744 1654.25 657.448 1653.74 658.376C1653.26 659.304 1653.02 660.408 1653.02 661.688V677H1647.6Z" fill="#737373"/>
<path d="M1687.91 677.576C1685.32 677.576 1683.02 676.984 1681 675.8C1679.02 674.584 1677.47 672.952 1676.35 670.904C1675.23 668.824 1674.67 666.504 1674.67 663.944C1674.67 661.32 1675.23 659 1676.35 656.984C1677.5 654.968 1679.03 653.384 1680.95 652.232C1682.87 651.048 1685.05 650.456 1687.48 650.456C1689.43 650.456 1691.18 650.792 1692.71 651.464C1694.25 652.136 1695.55 653.064 1696.6 654.248C1697.66 655.4 1698.46 656.728 1699 658.232C1699.58 659.736 1699.87 661.336 1699.87 663.032C1699.87 663.448 1699.85 663.88 1699.82 664.328C1699.79 664.776 1699.72 665.192 1699.63 665.576H1678.94V661.256H1696.55L1693.96 663.224C1694.28 661.656 1694.17 660.264 1693.63 659.048C1693.11 657.8 1692.31 656.824 1691.23 656.12C1690.17 655.384 1688.92 655.016 1687.48 655.016C1686.04 655.016 1684.76 655.384 1683.64 656.12C1682.52 656.824 1681.66 657.848 1681.05 659.192C1680.44 660.504 1680.2 662.104 1680.33 663.992C1680.17 665.752 1680.41 667.288 1681.05 668.6C1681.72 669.912 1682.65 670.936 1683.83 671.672C1685.05 672.408 1686.43 672.776 1687.96 672.776C1689.53 672.776 1690.86 672.424 1691.95 671.72C1693.07 671.016 1693.95 670.104 1694.59 668.984L1699 671.144C1698.49 672.36 1697.69 673.464 1696.6 674.456C1695.55 675.416 1694.27 676.184 1692.76 676.76C1691.29 677.304 1689.67 677.576 1687.91 677.576Z" fill="#737373"/>
<path d="M1714.08 677V641.24H1719.74V656.984H1736.3V641.24H1741.92V677H1736.3V662.024H1719.74V677H1714.08Z" fill="#737373"/>
<path d="M1756.58 677.576C1754.82 677.576 1753.26 677.272 1751.92 676.664C1750.61 676.024 1749.58 675.16 1748.85 674.072C1748.11 672.952 1747.74 671.64 1747.74 670.136C1747.74 668.728 1748.05 667.464 1748.66 666.344C1749.3 665.224 1750.27 664.28 1751.58 663.512C1752.9 662.744 1754.54 662.2 1756.53 661.88L1765.55 660.392V664.664L1757.58 666.056C1756.14 666.312 1755.09 666.776 1754.42 667.448C1753.74 668.088 1753.41 668.92 1753.41 669.944C1753.41 670.936 1753.78 671.752 1754.51 672.392C1755.28 673 1756.26 673.304 1757.44 673.304C1758.91 673.304 1760.19 672.984 1761.28 672.344C1762.4 671.704 1763.26 670.856 1763.87 669.8C1764.48 668.712 1764.78 667.512 1764.78 666.2V659.528C1764.78 658.248 1764.3 657.208 1763.34 656.408C1762.42 655.576 1761.17 655.16 1759.6 655.16C1758.16 655.16 1756.9 655.544 1755.81 656.312C1754.75 657.048 1753.97 658.008 1753.46 659.192L1748.94 656.936C1749.42 655.656 1750.21 654.536 1751.3 653.576C1752.38 652.584 1753.65 651.816 1755.09 651.272C1756.56 650.728 1758.11 650.456 1759.74 650.456C1761.79 650.456 1763.6 650.84 1765.17 651.608C1766.77 652.376 1768 653.448 1768.86 654.824C1769.76 656.168 1770.21 657.736 1770.21 659.528V677H1765.02V672.296L1766.13 672.44C1765.52 673.496 1764.74 674.408 1763.78 675.176C1762.85 675.944 1761.78 676.536 1760.56 676.952C1759.38 677.368 1758.05 677.576 1756.58 677.576Z" fill="#737373"/>
<path d="M1786.15 677.576C1783.49 677.576 1781.16 676.92 1779.14 675.608C1777.16 674.296 1775.77 672.536 1774.97 670.328L1779.14 668.36C1779.85 669.832 1780.81 671 1782.02 671.864C1783.27 672.728 1784.65 673.16 1786.15 673.16C1787.43 673.16 1788.47 672.872 1789.27 672.296C1790.07 671.72 1790.47 670.936 1790.47 669.944C1790.47 669.304 1790.29 668.792 1789.94 668.408C1789.59 667.992 1789.14 667.656 1788.6 667.4C1788.09 667.144 1787.56 666.952 1787.01 666.824L1782.93 665.672C1780.69 665.032 1779.01 664.072 1777.89 662.792C1776.81 661.48 1776.26 659.96 1776.26 658.232C1776.26 656.664 1776.66 655.304 1777.46 654.152C1778.26 652.968 1779.37 652.056 1780.77 651.416C1782.18 650.776 1783.77 650.456 1785.53 650.456C1787.89 650.456 1790.01 651.048 1791.86 652.232C1793.72 653.384 1795.03 655 1795.8 657.08L1791.62 659.048C1791.11 657.8 1790.29 656.808 1789.17 656.072C1788.09 655.336 1786.85 654.968 1785.48 654.968C1784.29 654.968 1783.35 655.256 1782.65 655.832C1781.94 656.376 1781.59 657.096 1781.59 657.992C1781.59 658.6 1781.75 659.112 1782.07 659.528C1782.39 659.912 1782.81 660.232 1783.32 660.488C1783.83 660.712 1784.36 660.904 1784.9 661.064L1789.13 662.312C1791.27 662.92 1792.92 663.88 1794.07 665.192C1795.22 666.472 1795.8 668.008 1795.8 669.8C1795.8 671.336 1795.38 672.696 1794.55 673.88C1793.75 675.032 1792.63 675.944 1791.19 676.616C1789.75 677.256 1788.07 677.576 1786.15 677.576Z" fill="#737373"/>
<path d="M1810.71 677.576C1808.06 677.576 1805.72 676.92 1803.71 675.608C1801.72 674.296 1800.33 672.536 1799.53 670.328L1803.71 668.36C1804.41 669.832 1805.37 671 1806.59 671.864C1807.83 672.728 1809.21 673.16 1810.71 673.16C1811.99 673.16 1813.03 672.872 1813.83 672.296C1814.63 671.72 1815.03 670.936 1815.03 669.944C1815.03 669.304 1814.86 668.792 1814.51 668.408C1814.15 667.992 1813.71 667.656 1813.16 667.4C1812.65 667.144 1812.12 666.952 1811.58 666.824L1807.5 665.672C1805.26 665.032 1803.58 664.072 1802.46 662.792C1801.37 661.48 1800.83 659.96 1800.83 658.232C1800.83 656.664 1801.23 655.304 1802.03 654.152C1802.83 652.968 1803.93 652.056 1805.34 651.416C1806.75 650.776 1808.33 650.456 1810.09 650.456C1812.46 650.456 1814.57 651.048 1816.43 652.232C1818.28 653.384 1819.59 655 1820.36 657.08L1816.19 659.048C1815.67 657.8 1814.86 656.808 1813.74 656.072C1812.65 655.336 1811.42 654.968 1810.04 654.968C1808.86 654.968 1807.91 655.256 1807.21 655.832C1806.51 656.376 1806.15 657.096 1806.15 657.992C1806.15 658.6 1806.31 659.112 1806.63 659.528C1806.95 659.912 1807.37 660.232 1807.88 660.488C1808.39 660.712 1808.92 660.904 1809.47 661.064L1813.69 662.312C1815.83 662.92 1817.48 663.88 1818.63 665.192C1819.79 666.472 1820.36 668.008 1820.36 669.8C1820.36 671.336 1819.95 672.696 1819.11 673.88C1818.31 675.032 1817.19 675.944 1815.75 676.616C1814.31 677.256 1812.63 677.576 1810.71 677.576Z" fill="#737373"/>
<path d="M1825.68 677V640.664H1831.1V677H1825.68Z" fill="#737373"/>
<path d="M1849.63 677.576C1847.04 677.576 1844.74 676.984 1842.72 675.8C1840.74 674.584 1839.19 672.952 1838.07 670.904C1836.95 668.824 1836.39 666.504 1836.39 663.944C1836.39 661.32 1836.95 659 1838.07 656.984C1839.22 654.968 1840.75 653.384 1842.67 652.232C1844.59 651.048 1846.77 650.456 1849.2 650.456C1851.15 650.456 1852.9 650.792 1854.43 651.464C1855.97 652.136 1857.27 653.064 1858.32 654.248C1859.38 655.4 1860.18 656.728 1860.72 658.232C1861.3 659.736 1861.59 661.336 1861.59 663.032C1861.59 663.448 1861.57 663.88 1861.54 664.328C1861.51 664.776 1861.44 665.192 1861.35 665.576H1840.66V661.256H1858.27L1855.68 663.224C1856 661.656 1855.89 660.264 1855.35 659.048C1854.83 657.8 1854.03 656.824 1852.95 656.12C1851.89 655.384 1850.64 655.016 1849.2 655.016C1847.76 655.016 1846.48 655.384 1845.36 656.12C1844.24 656.824 1843.38 657.848 1842.77 659.192C1842.16 660.504 1841.92 662.104 1842.05 663.992C1841.89 665.752 1842.13 667.288 1842.77 668.6C1843.44 669.912 1844.37 670.936 1845.55 671.672C1846.77 672.408 1848.15 672.776 1849.68 672.776C1851.25 672.776 1852.58 672.424 1853.67 671.72C1854.79 671.016 1855.67 670.104 1856.31 668.984L1860.72 671.144C1860.21 672.36 1859.41 673.464 1858.32 674.456C1857.27 675.416 1855.99 676.184 1854.48 676.76C1853.01 677.304 1851.39 677.576 1849.63 677.576Z" fill="#737373"/>
<path d="M1722.01 543.105V506.764H1756.27V543.105H1722.01Z" fill="#6366F1"/>
<path d="M828.192 542.764V435.16H804V405.676H828.192V401.14C828.192 390.724 830.292 381.904 834.492 374.68C838.86 367.288 844.908 361.66 852.636 357.796C860.364 353.932 869.52 352 880.104 352C882.12 352 884.304 352.168 886.656 352.504C889.176 352.672 891.276 352.924 892.956 353.26V381.736C891.276 381.4 889.68 381.232 888.168 381.232C886.824 381.064 885.564 380.98 884.388 380.98C876.996 380.98 871.284 382.66 867.252 386.02C863.22 389.212 861.204 394.252 861.204 401.14V405.676H891.696V435.16H861.204V542.764H828.192Z" fill="white"/>
<path d="M977.785 545.788C964.345 545.788 952.081 542.68 940.993 536.464C930.073 530.248 921.338 521.764 914.786 511.012C908.402 500.26 905.209 487.996 905.209 474.22C905.209 460.444 908.402 448.18 914.786 437.428C921.338 426.676 930.073 418.192 940.993 411.976C951.913 405.76 964.177 402.652 977.785 402.652C991.225 402.652 1003.41 405.76 1014.33 411.976C1025.25 418.192 1033.9 426.676 1040.28 437.428C1046.83 448.012 1050.11 460.276 1050.11 474.22C1050.11 487.996 1046.83 500.26 1040.28 511.012C1033.73 521.764 1024.99 530.248 1014.07 536.464C1003.15 542.68 991.057 545.788 977.785 545.788ZM977.785 515.548C985.177 515.548 991.645 513.784 997.189 510.256C1002.9 506.728 1007.35 501.856 1010.55 495.64C1013.91 489.256 1015.59 482.116 1015.59 474.22C1015.59 466.156 1013.91 459.1 1010.55 453.052C1007.35 446.836 1002.9 441.964 997.189 438.436C991.645 434.74 985.177 432.892 977.785 432.892C970.225 432.892 963.59 434.74 957.878 438.436C952.166 441.964 947.629 446.836 944.269 453.052C941.077 459.1 939.482 466.156 939.482 474.22C939.482 482.116 941.077 489.256 944.269 495.64C947.629 501.856 952.166 506.728 957.878 510.256C963.59 513.784 970.225 515.548 977.785 515.548Z" fill="white"/>
<path d="M1075.14 542.764V405.676H1106.14V436.168L1103.62 431.632C1106.81 421.384 1111.77 414.244 1118.49 410.212C1125.38 406.18 1133.61 404.164 1143.18 404.164H1151.25V433.396H1139.4C1130 433.396 1122.44 436.336 1116.72 442.216C1111.01 447.928 1108.16 455.992 1108.16 466.408V542.764H1075.14Z" fill="white"/>
<path d="M1169.4 542.764V405.676H1200.39V437.428L1196.87 432.136C1199.39 422.224 1204.43 414.832 1211.99 409.96C1219.55 405.088 1228.45 402.652 1238.7 402.652C1249.95 402.652 1259.87 405.592 1268.43 411.472C1277 417.352 1282.55 425.08 1285.07 434.656L1275.74 435.412C1279.94 424.492 1286.24 416.344 1294.64 410.968C1303.04 405.424 1312.7 402.652 1323.62 402.652C1333.37 402.652 1342.02 404.836 1349.58 409.204C1357.31 413.572 1363.35 419.704 1367.72 427.6C1372.09 435.328 1374.27 444.316 1374.27 454.564V542.764H1341.26V462.376C1341.26 456.328 1340.17 451.12 1337.99 446.752C1335.8 442.384 1332.78 439.024 1328.91 436.672C1325.05 434.152 1320.35 432.892 1314.8 432.892C1309.59 432.892 1304.97 434.152 1300.94 436.672C1296.91 439.024 1293.8 442.384 1291.62 446.752C1289.43 451.12 1288.34 456.328 1288.34 462.376V542.764H1255.33V462.376C1255.33 456.328 1254.24 451.12 1252.05 446.752C1249.87 442.384 1246.76 439.024 1242.73 436.672C1238.87 434.152 1234.25 432.892 1228.87 432.892C1223.66 432.892 1219.04 434.152 1215.01 436.672C1210.98 439.024 1207.87 442.384 1205.69 446.752C1203.5 451.12 1202.41 456.328 1202.41 462.376V542.764H1169.4Z" fill="white"/>
<path d="M1402.2 542.764V405.676H1435.21V542.764H1402.2ZM1402.2 390.304V355.024H1435.21V390.304H1402.2Z" fill="white"/>
<path d="M1528.19 544.276C1512.73 544.276 1500.72 540.076 1492.15 531.676C1483.75 523.108 1479.55 511.096 1479.55 495.64V435.16H1455.87V405.676H1458.39C1465.11 405.676 1470.31 403.912 1474.01 400.384C1477.71 396.856 1479.55 391.732 1479.55 385.012V374.428H1512.57V405.676H1544.07V435.16H1512.57V493.876C1512.57 498.412 1513.32 502.276 1514.83 505.468C1516.51 508.66 1519.03 511.096 1522.39 512.776C1525.92 514.456 1530.37 515.296 1535.75 515.296C1536.93 515.296 1538.27 515.212 1539.78 515.044C1541.46 514.876 1543.06 514.708 1544.57 514.54V542.764C1542.22 543.1 1539.53 543.436 1536.51 543.772C1533.48 544.108 1530.71 544.276 1528.19 544.276Z" fill="white"/>
<path d="M1586.42 598.456C1582.73 598.456 1579.12 598.12 1575.59 597.448C1572.06 596.944 1568.87 596.02 1566.01 594.676V566.956C1568.2 567.46 1570.8 567.964 1573.82 568.468C1577.02 568.972 1579.96 569.224 1582.64 569.224C1590.2 569.224 1595.66 567.46 1599.02 563.932C1602.55 560.404 1605.66 555.784 1608.35 550.072L1617.42 528.904L1616.92 556.624L1557.19 405.676H1592.72L1634.56 517.06H1621.96L1663.54 405.676H1699.32L1639.6 556.624C1636.07 565.528 1631.78 573.088 1626.74 579.304C1621.7 585.52 1615.82 590.224 1609.1 593.416C1602.55 596.776 1594.99 598.456 1586.42 598.456Z" fill="white"/>
</svg>
